<?xml version="1.0" encoding="utf-8"?>
<!-- Generator: Adobe Illustrator 26.2.1, SVG Export Plug-In . SVG Version: 6.00 Build 0)  -->
<svg version="1.1" id="Capa_1" xmlns="http://www.w3.org/2000/svg" xmlns:xlink="http://www.w3.org/1999/xlink" x="0px" y="0px"
	 viewBox="0 0 1595.23 1080" style="enable-background:new 0 0 1595.23 1080;" xml:space="preserve">
<style type="text/css">
	.st0{fill:#2965A7;}
	.st1{opacity:0.05;}
	.st2{fill:#FFFFFF;}
</style>
<rect x="-5.1" class="st0" width="1605.44" height="1081.14"/>
<g class="st1">
	<path class="st2" d="M1595.23,640.37c-6.84,2.71-13.82,1.73-20.61,0.2c-8.3-1.87-16.42-4.44-25.11-3.96
		c-22.38,1.25-42,21.33-41.42,43.79c0.38,15,2.44,29.95,3.7,44.92c1.48,17.62,0.82,34.94-8.36,50.78
		c-11.31,19.53-29.01,30.02-50.51,34.47c-43.66,9.03-86.25-25.5-95.91-60.19c-1.68-6.04-0.89-11.4,3.93-15.67
		c4.52-4.01,9.98-5.61,15.54-3.13c3.05,1.36,5.84,4.13,7.83,6.92c6.16,8.64,10.74,18.39,18.8,25.7
		c14.89,13.5,31.57,19.37,51.4,12.72c15.36-5.15,25.63-18,25.34-34.16c-0.25-14.19-1.9-28.39-3.5-42.52
		c-2.74-24.18,0.79-46.75,15.92-66.56c18.76-24.56,52.97-35.08,82.08-25.26c8.94,3.02,16.59,7.85,20.9,16.75
		C1595.23,630.25,1595.23,635.31,1595.23,640.37z"/>
	<path class="st2" d="M1595.23,1021.71c-9.81,7.14-20.69,11.6-32.87,11.94c-22.06,0.63-37.05-10.18-46.39-29.62
		c-6.89-14.33-7-29.57-5.93-44.95c0.63-9.02,1.3-18.04,1.94-27.06c0.05-0.66,0-1.33,0-2c-0.08-18.7-15.87-21.58-26.43-16.94
		c-6.57,2.89-12.29,7.75-18.29,11.87c-2.84,1.95-5.35,4.38-8.17,6.37c-3.98,2.81-8.26,2.79-12.39,0.38
		c-4.13-2.4-6.05-6.37-4.98-10.85c1.18-4.96,2.52-10.26,5.31-14.39c11.71-17.32,28.06-26.95,49.31-26.84
		c25.13,0.13,43.82,17.28,47.13,42.23c1.67,12.6-0.63,24.94-1.14,37.4c-0.36,8.7,0.11,17.5,1.15,26.15
		c0.45,3.7,2.85,7.44,5.16,10.57c3.93,5.33,9.49,6.75,15.99,5.14c9.27-2.29,15.87-8.07,20.5-15.99c3.79-6.48,6.78-13.44,10.12-20.19
		C1595.23,983.87,1595.23,1002.79,1595.23,1021.71z"/>
	<path class="st2" d="M-3.69,415.72c9.49-5.01,17.7-2.88,23.76,6.54c8.21,12.76,18.9,22.32,33.76,26.37c3.9,1.06,8.14,1.37,12.2,1.2
		c6.27-0.25,9.92-3.56,11.76-9.58c3.23-10.53,0.44-20.58-2.85-30.44c-3.01-9.03-8.09-16.97-14.04-24.43
		c-2.77-3.47-5.58-7.34-6.81-11.49c-1.9-6.39,0.53-12.11,5.97-16.16c5.28-3.93,11.02-3.66,16.57-0.8c2.54,1.3,4.91,3.27,6.8,5.42
		c17.89,20.3,28.09,43.75,27.93,71.08c-0.08,12.9-4.24,24.63-12.98,34.33C87.36,480,73.02,483.52,57.36,481.76
		c-25.46-2.86-45.14-15.5-59.33-36.77c-0.5-0.74-1.14-1.39-1.72-2.08C-3.69,433.84-3.69,424.78-3.69,415.72z"/>
	<path class="st2" d="M1595.23,195.87c-10,3.32-19.65,7.42-28.17,13.73c-11.76,8.71-21.06,19.24-23.3,34.39
		c-1.54,10.42,1.24,20.33,3.99,30.23c1.6,5.76,3.48,11.46,4.61,17.31c0.58,3.02,0.33,6.43-0.43,9.43
		c-2.54,9.92-13.69,13.37-21.35,6.51c-2.9-2.6-5.41-5.98-7.14-9.48c-7.34-14.83-11.82-30.58-12.07-47.16
		c-0.39-25.27,10.69-45.36,29.52-61.53c15.77-13.54,33.85-22.38,54.34-26.2C1595.23,174.02,1595.23,184.95,1595.23,195.87z"/>
	<path class="st2" d="M1595.23,716.32c-6.1,2.84-12.71,4.95-18.2,8.69c-8.84,6.03-12.07,15.59-12.91,25.9
		c-1.48,18.08,4.07,33.97,14.8,48.44c3.33,4.49,5.74,9.79,7.86,15.01c1.76,4.35,0.69,8.75-2.88,12.07
		c-3.46,3.23-7.47,3.81-12.2,2.84c-7.65-1.56-13.41-5.82-18.05-11.65c-20.19-25.41-27.11-53.96-18.36-85.43
		c7.38-26.55,26.79-40.54,52.48-47.08c2.4-0.61,4.97-0.54,7.47-0.78C1595.23,695,1595.23,705.66,1595.23,716.32z"/>
	<path class="st2" d="M-3.69,258.23c34.89-18.68,70.62-16.74,106.64-4.05c7.36,2.59,14.54,5.94,21.42,9.63
		c6.47,3.48,8.87,11.56,6.38,18.45c-2.43,6.74-9.28,11.25-16.3,10.12c-3.21-0.52-6.3-2.02-9.32-3.38
		c-12.31-5.53-24.95-10.01-38.35-11.93c-26.05-3.74-49.81,0.8-69.47,19.71c-0.28,0.27-0.67,0.42-1.01,0.62
		C-3.69,284.35-3.69,271.29-3.69,258.23z"/>
	<path class="st2" d="M1595.23,351.77c-6.6-3.24-13.23-5.44-20.94-5.03c-12.41,0.65-20.06,10.37-22.93,18.74
		c-2.8,8.17-1.76,16.26,0.28,24.38c0.71,2.83,1.4,5.7,1.71,8.59c0.54,4.92-0.79,9.31-4.95,12.35c-4.23,3.09-9.15,3.1-13.17,0.46
		c-3.99-2.62-7.76-6.16-10.4-10.12c-7.85-11.79-8.61-25.03-5.55-38.41c5.3-23.21,18.16-40.02,41.99-46.57
		c10.06-2.76,20.28-2.38,30.43-0.12c1.16,0.26,2.35,0.38,3.53,0.56C1595.23,328.32,1595.23,340.04,1595.23,351.77z"/>
	<path class="st2" d="M1524.37,1083.86h70.86v-34.16c-2.82-1.11-5.61-3.03-8.48-3.17c-7.91-0.39-15.91-0.59-23.76,0.2
		c-5.68,0.57-10.37,0.26-15.31-3.17c-8.38-5.82-19.36-5.14-26.45,0.65c-7.68,6.26-10.5,17.07-6.85,26.77
		C1516.45,1076.46,1519.99,1080.58,1524.37,1083.86z"/>
	<path class="st2" d="M1595.23,527.65c-7.32,3.43-19.25-0.45-19.99-13.66c-0.22-3.97-0.15-7.98,0.04-11.96
		c0.81-17.45-5.12-32.47-15.95-45.92c-2.68-3.33-5.3-7.19-6.36-11.22c-1.85-7.02,1.64-13.41,7.79-16.76
		c6.01-3.27,13.83-2.44,19.07,3.08c4.91,5.17,8.99,11.13,13.42,16.76c0.73,0.93,1.33,1.95,1.99,2.94
		C1595.23,476.48,1595.23,502.07,1595.23,527.65z"/>
	<path class="st2" d="M1595.23,888.2c-25.45,9.66-50.14-0.79-63.53-19.03c-4.7-6.4-7.24-13.48-6.4-21.63
		c0.55-5.42,2.82-9.44,8.07-11.23c5.83-1.98,11.1-0.71,15.33,3.76c2.18,2.3,3.7,5.25,5.96,7.47c3.65,3.59,7.2,7.71,11.62,10.01
		c9.47,4.91,20.5,1.46,26.78-7.34c0.68-0.96,1.44-1.85,2.17-2.78C1595.23,861.02,1595.23,874.61,1595.23,888.2z"/>
	<path class="st2" d="M-3.69,858.62c1.6-6.24,3.75-12.4,4.65-18.73c1.27-8.92,5.18-14.74,12.55-16.59
		c9.84-2.47,19.02,4.02,19.71,14.18c0.94,13.96-3.46,26.83-9.43,39.04c-2.92,5.97-7.03,11.73-11.82,16.3
		c-4.36,4.16-10.37,6.58-15.66,9.77C-3.69,887.94-3.69,873.28-3.69,858.62z"/>
	<path class="st2" d="M1595.23,286.21c-1.98,2.23-3.61,5-6.03,6.57c-5.04,3.28-11.69,1.44-16.23-4.07
		c-5.24-6.36-7.75-13.93-8.58-21.94c-1.96-19.03,2.46-35.74,19.05-47.24c3.47-2.41,7.83-3.54,11.78-5.26
		C1595.23,238.24,1595.23,262.23,1595.23,286.21z"/>
	<path class="st2" d="M-3.69,1016.92c5.36-5.89,10.9-11.62,16.04-17.7c5.94-7.03,14.96-8.2,22.71-2.51
		c6.61,4.85,8.21,14.32,3.09,21.39c-10.52,14.53-23.28,26.96-37.17,38.25c-1.55,1.26-3.12,2.49-4.68,3.74
		C-3.69,1045.7-3.69,1031.31-3.69,1016.92z"/>
	<path class="st2" d="M1567.24-1.86c-2.44,0.85-4.85,1.82-7.22,2.96c-6.29,3.01-11.93,6.99-15.56,13.23
		c-5.46,9.39-0.46,18.4,10.45,18.14c4.83-0.12,9.68-1.43,14.43-2.59c8.52-2.08,16.97-4.45,25.89-3.5V-1.86H1567.24z"/>
	<path class="st2" d="M21.05-0.36c-0.58-0.5-1.17-1-1.75-1.49H-3.69v22.65c3.84,3.69,7.74,7.31,11.5,11.07
		c6.56,6.57,16.7,7.13,22.99,1.17c6.6-6.25,6.79-16.91,0.29-23.67C27.86,6,24.56,2.69,21.05-0.36z"/>
	<path class="st2" d="M-3.69,50.37c3.72,2.15,7.89,3.8,10.98,6.64c1.99,1.83,3.48,5.45,3.34,8.16c-1.01,18.84-2.21,37.69-4.01,56.47
		c-0.76,7.91-4.41,15.01-10.31,20.67C-3.69,111.66-3.69,81.02-3.69,50.37z"/>
	<path class="st2" d="M-3.69,491.67c8.54,2.83,16.18,7.25,23.24,12.78c5.69,4.45,7.54,10.16,5.7,16.95
		c-2.88,10.66-14.03,14.72-23.52,8.67c-1.9-1.21-3.62-2.68-5.43-4.03C-3.69,514.59-3.69,503.13-3.69,491.67z"/>
	<path class="st2" d="M-3.69,702.73c5.1,5.71,10.87,10.98,15.14,17.25c5.39,7.92-1.11,20.79-10.82,22.82
		c-1.43,0.3-2.88,0.47-4.33,0.69C-3.69,729.91-3.69,716.32-3.69,702.73z"/>
	<path class="st2" d="M-3.69,552.43c10.04,10.52,10.04,29,0,39.17C-3.69,578.55-3.69,565.49-3.69,552.43z"/>
	<path class="st2" d="M1595.23,414.92c-5.33-6.7-8.98-14.05-7.74-22.9c0.67-4.78,2.17-9.3,7.74-10.68
		C1595.23,392.54,1595.23,403.73,1595.23,414.92z"/>
	<path class="st2" d="M-3.69,958.56c5.65,4.81,6.99,11.26,6.61,18.19c-0.34,6.32-2.55,12.05-6.61,16.99
		C-3.69,982.01-3.69,970.28-3.69,958.56z"/>
	<path class="st2" d="M-3.69,627.58c7.09,6.79,7.09,16.62,0,23.18C-3.69,643.04-3.69,635.31-3.69,627.58z"/>
	<path class="st2" d="M1595.23,578.01c-7.87-3.59-7.87-10.75,0-16.79C1595.23,566.82,1595.23,572.42,1595.23,578.01z"/>
	<path class="st2" d="M1029.84,927.97c-14.08,6.02-23.64,16.74-32.41,28.46c-3.54,4.72-7.47,9.39-12.08,13.01
		c-6.23,4.9-14.09,2.02-15.8-5.76c-1.05-4.77-1.62-10.45-0.02-14.85c10.02-27.41,29.2-45.82,57.36-53.71
		c18.41-5.16,35.38,6.69,37.27,24.79c0.71,6.79-0.77,13.48-4.01,19.29c-6.15,11.01-13.01,21.63-19.6,32.39
		c-1.29,2.11-2.73,4.12-3.54,6.65c4.96-3.87,9.74-7.99,14.92-11.53c7.57-5.17,15.2-10.34,23.22-14.75c8.61-4.73,18.02-5.5,27.48-2.5
		c16.65,5.26,24.49,22.08,16.73,37.66c-6.15,12.36-13.66,24.05-20.57,36.03c-2.83,4.91-5.71,9.79-8.57,14.69
		c0.28,0.28,0.57,0.57,0.85,0.85c6.42-5.43,13.2-10.5,19.18-16.38c7.49-7.36,14.5-15.23,21.38-23.18c5.92-6.84,14.66-8.1,22.43-2.62
		c6.7,4.73,8.67,14.43,3.45,21.29c-5.87,7.71-11.99,15.43-19.08,21.99c-10.72,9.93-22.23,19.02-33.67,28.14
		c-5.33,4.25-11.46,7.39-18.41,8.15c-18.39,2.01-33.72-14.4-31.38-33.39c0.95-7.67,3.59-14.71,7.43-21.33
		c6.28-10.82,12.62-21.6,18.93-32.4c0.79-1.35,1.53-2.72,2.3-4.08c-0.29-0.33-0.59-0.65-0.88-0.98
		c-8.42,6.53-16.99,12.88-25.2,19.66c-6.05,4.99-11.41,10.82-17.47,15.8c-10.8,8.87-23.95,10.21-34.14,3.98
		c-10.78-6.59-15.21-19.65-11.51-33.76c2.67-10.21,8.02-19.09,13.72-27.79c6.35-9.69,12.75-19.34,19.08-29.03
		C1028.22,931.26,1028.98,929.58,1029.84,927.97z"/>
	<path class="st2" d="M664.86,742.15c0.69,12.96,2.94,25.46,6.63,37.78c1.62,5.42,3.16,11.16,3.06,16.73
		c-0.17,9.82-5.08,17.48-14.53,20.97c-9.38,3.46-17.64,0.4-25.14-5.81c-15.04-12.46-21.95-29.01-24.59-47.78
		c-1.89-13.47-3.18-26.97-1.36-40.57c3.22-24.04,16.85-40.69,37.65-51.78c35.53-18.94,79.94-10.1,105.8,20.78
		c9.03,10.79,14.4,23.22,15.9,37.25c1.35,12.6-5.75,23.76-17.05,26.33c-6.99,1.59-14.03,0.65-20.13-2.92
		c-7.89-4.61-15.36-9.96-22.82-15.25c-5.53-3.92-10.63-8.45-16.19-12.33c-4.75-3.31-10.12-5.3-16.06-5.21
		c-4.8,0.07-7.65,1.83-8.78,6.53C666.06,731.87,665.63,737.05,664.86,742.15z"/>
	<path class="st2" d="M717.9-1.86c-2.82,4.94-7.15,8.6-13.07,10.56c-4.16,1.37-8.43,2.42-12.69,3.46
		c-11.08,2.73-22.66,4.18-33.18,8.32c-24.79,9.74-42.85,26.88-52.02,52.48c-3.46,9.67-2.02,18.88,2.49,27.79
		c1.89,3.73,4.99,5.75,9.31,5.78c4.37,0.03,7.34-2.04,9.14-5.89c2.36-5.05,4.88-10.05,6.92-15.23c7.22-18.39,20.09-31,38.88-36.81
		c10.38-3.21,21.24-4.86,31.88-7.21c20.57-4.54,35.69-15.98,43.27-35.85c0.94-2.47,1.76-4.93,2.49-7.39H717.9z"/>
	<path class="st2" d="M706.55,1083.86c1.44-6.26-0.96-13.14-6.17-16.56c-6.96-4.57-16.51-3.11-21.62,3.31
		c-5.56,6.98-11.36,9.05-19.93,5.8c-11.45-4.34-13.29-11.14-5.42-19.95c13.24-14.83,38.39-15.74,52.9-1.8
		c9.09,8.74,14.36,18.54,16.2,29.2h31.9c-1.31-11.19-5.04-22.17-11.28-32.84c-13.8-23.61-34.34-36.94-62.29-37.52
		c-2.39,0.13-4.8,0.12-7.18,0.4c-19.99,2.32-36.83,10.37-48.39,27.42c-9.41,13.89-10.43,29.43-3.56,42.54H706.55z"/>
	<path class="st2" d="M601.35,1083.86c-1.79-3.99-3.18-8.22-4.08-12.76c-3.9-19.64,0.36-37.4,13.18-52.65
		c9.79-11.64,22.92-18.54,37.53-22.22c19.07-4.81,38.35-8.79,57.42-13.63c19.78-5.03,38.5-12.72,53.95-26.49
		c23.49-20.94,36.04-47.38,37.74-78.8c0.41-7.52,0.71-15.24-2.96-22.29c-3.42-6.56-10.03-9.45-17.14-7.63
		c-7.78,1.99-12.71,8.01-12.48,15.39c0.12,3.72,0.76,7.46,0.55,11.16c-1.84,32.23-16.66,56.1-46.08,70.12
		c-14.15,6.74-29.54,9.55-44.75,12.79c-18.07,3.85-36.31,7.25-53.22,15.06c-36.56,16.9-55.33,45.83-57.54,82.24
		c0.25,10.78,1.63,20.64,4.14,29.72H601.35z"/>
	<path class="st2" d="M627.99-1.86h-43.43c3.84,4.85,8.19,9.43,13.07,13.75c6.33,5.6,13.49,10.05,22.23,10.89
		c5.32,0.51,10.22-0.81,13.38-5.41c2.98-4.34,2.13-9.16-0.57-13.17C631.25,2.1,629.67,0.08,627.99-1.86z"/>
	<path class="st2" d="M181.46,320.19c-1.13-4.46-2.05-8.98-3.43-13.36c-4-12.73-7.38-25.5-6.8-39.08
		c0.89-20.9,16.79-40.74,36.2-44.3c11.46-2.1,21.86,1.14,31.53,7.25c4.68,2.96,9.4,5.88,15.37,9.61c0.98-5.07,2.17-8.96,2.4-12.91
		c0.46-7.83-0.3-15.77,0.65-23.52c3.97-32.59,32.6-41.81,56.97-33.1c11.26,4.03,20.81,10.85,29.31,18.95
		c8.66,8.25,16.71,17.15,24.86,25.91c3.38,3.64,4.98,8.11,4.55,13.2c-0.51,6.08-4.69,11.51-10.42,13.4
		c-6.53,2.15-12.72,0.39-17.16-4.2c-9.71-10.03-19.37-20.14-29.58-29.65c-5.31-4.95-11.53-9.07-19.6-8.48
		c-3.91,0.29-6.39,2.04-6.87,5.86c-0.46,3.68-0.58,7.42-0.55,11.13c0.11,11.74,0.28,23.47-4.96,34.44
		c-8.6,18.03-26.46,24.96-44.76,16.82c-6.39-2.84-12.36-6.77-18.22-10.66c-6.69-4.45-11.46-2.26-15.21,4.69
		c-3.51,6.48-2.74,13.47-1.01,20.27c2.2,8.62,5.04,17.09,7.08,25.74c2.08,8.81,2.16,17.74-1.41,26.3
		c-6.91,16.57-24.12,23.25-42.02,16.04c-15.72-6.34-23.67-18.79-25.76-35.15c-0.63-4.96-0.43-10.1,0.02-15.11
		c0.83-9.25,7.89-14.44,16.01-11.51c2.8,1.01,5.66,3.66,7.07,6.31c3.35,6.32,5.69,13.17,8.79,19.64c1.16,2.43,3.29,4.39,4.97,6.57
		C180.15,320.91,180.81,320.55,181.46,320.19z"/>
	<path class="st2" d="M1373.97,239c0.7-4.09,1.75-8.16,2.03-12.29c0.6-9.01-0.31-18.26,1.38-27.03
		c4.87-25.2,27.56-37.52,53.45-29.82c11.76,3.49,21.73,10.2,30.46,18.49c9.44,8.96,18.41,18.46,27.09,28.18
		c5.34,5.98,5.32,14.04,1.13,19.97c-4.07,5.76-11.58,8.3-18.44,5.7c-2.48-0.94-4.75-2.86-6.68-4.77
		c-9.75-9.62-19.1-19.66-29.13-28.97c-5.32-4.94-11.5-9.1-19.58-8.55c-3.89,0.27-6.45,1.91-6.96,5.74
		c-0.49,3.67-0.62,7.42-0.59,11.13c0.12,11.87,0.29,23.72-5.08,34.8c-8.57,17.66-26.14,24.6-44.16,16.78
		c-6.41-2.78-12.23-6.96-18.28-10.56c-7.44-4.43-13.03-2.51-16.3,5.68c-2.49,6.23-1.97,12.59-0.37,18.85
		c2.21,8.62,5.1,17.08,7.08,25.74c2.47,10.78,2.19,21.45-3.88,31.26c-8.06,13.03-23.58,17.6-39.4,11.24
		c-15.72-6.32-23.83-18.71-25.81-35.09c-0.71-5.84-0.3-11.97,0.6-17.81c0.93-6.06,5.1-9.26,10.6-9.72
		c5.42-0.45,9.87,2.25,12.27,7.66c2.86,6.44,5.54,12.96,8.43,19.38c1.19,2.64,2.55,5.32,6.96,5.68c-1.21-4.83-2.1-9.36-3.48-13.73
		c-4.08-12.86-7.47-25.76-6.83-39.47c0.96-20.72,16.82-40.41,36.08-43.99c11.46-2.13,21.87,1.07,31.54,7.16
		c4.7,2.96,9.41,5.91,14.11,8.87C1372.8,239.33,1373.39,239.17,1373.97,239z"/>
	<path class="st2" d="M795.97,434.56c-17.56-0.72-33.38-3.74-46.73-14.29c-10.4-8.22-13.9-20.45-9.9-32.57
		c3.66-11.11,13.37-17.96,26.81-18.33c5.28-0.14,10.6,0.59,15.87,1.15c6.91,0.73,12.93-0.83,17.62-6.19c3.29-3.77,3.88-8,0.9-12.05
		c-3.85-5.24-8.3-10.03-12.48-15.03c-5.6-6.7-10.54-13.83-12.25-22.56c-4.17-21.25,13.95-39.07,35.8-35.44
		c8.7,1.45,16.37,5.12,22.39,11.41c20.19,21.07,32.16,45.86,32.17,75.5c0.02,34.64-24.53,62.46-58.93,67.27
		C803.17,433.99,799.05,434.25,795.97,434.56z"/>
	<path class="st2" d="M561.87,324.48c-17.08-1.27-34.75-5.25-48.71-19.01c-7.02-6.92-10.06-15.52-10.08-25.25
		c-0.01-5.92,3.7-10.77,9.33-12.51c5.64-1.74,11.39-0.29,14.37,4.87c7.83,13.57,20.25,18.66,34.91,19.59
		c10.18,0.64,19.65-1.22,26.22-10.29c3.26-4.5,3.61-9.42,1.04-13.91c-3.35-5.84-7.26-11.44-11.56-16.63
		c-8-9.65-16.51-19.01-21.05-30.87c-10.23-26.69-8.67-52,10.87-74.31c10.04-11.46,23.43-16.93,38.35-18.28
		c33.02-2.99,56.37,12.48,73.28,39.46c3.3,5.27,5.91,11.01,8.43,16.71c3.2,7.25,0.49,14.54-6.69,19.21
		c-6.35,4.12-14.02,3.33-19.22-2.35c-1.93-2.11-3.5-4.71-4.67-7.34c-5.22-11.71-12.51-21.68-23.57-28.45
		c-11.89-7.29-28.67-8.31-40.5,1.13c-7.08,5.65-9.53,13.88-9.99,22.67c-0.61,11.72,3.33,21.95,10.61,30.98
		c5.93,7.36,12.18,14.47,17.83,22.04c5.85,7.85,10.3,16.47,11.35,26.46c1.91,18.03-5.12,32.22-19,43.23
		C591.77,320.89,578.09,324.18,561.87,324.48z"/>
	<path class="st2" d="M393.26,737.44c0.16,22.61-6.21,42.69-24.63,56.85c-26.87,20.66-56.1,23.88-86.38,7.95
		c-21.92-11.54-37.81-28.73-44.74-53.15c-1.66-5.85-0.02-10.87,4.57-14.72c4.62-3.88,10.15-5.24,15.65-2.66
		c2.92,1.37,5.48,4.16,7.4,6.88c6.13,8.67,10.73,18.39,18.81,25.69c14.91,13.48,31.61,19.3,51.42,12.62
		c15.34-5.17,25.54-18.03,25.26-34.22c-0.24-14.06-1.84-28.13-3.46-42.12c-2.81-24.17,0.63-46.74,15.68-66.6
		c18.62-24.57,52.34-35.12,81.56-25.76c11.31,3.63,19.65,10.31,23.69,21.82c1.11,3.15,0.97,6.01-1.05,8.66
		c-2.13,2.8-4.99,3.8-8.47,3.22c-10.16-1.7-20.29-3.73-30.5-4.96c-25.94-3.14-49.77,17.9-49.21,44.04
		c0.31,14.59,2.36,29.15,3.58,43.73C392.78,728.94,392.98,733.2,393.26,737.44z"/>
	<path class="st2" d="M572.31,543.8c-9.67,5.42-19.68,8.6-30.7,7.29c-16.47-1.97-28.19-10.95-35.13-25.61
		c-9.37-19.78-7.14-39.53,1.8-58.97c3.23-7.03,7.79-12.97,13.51-18.09c3.26-2.92,8.47-3.48,12.71-1.39
		c4.01,1.97,6.22,5.33,5.34,10.14c-1.95,10.69-4.4,21.3-6.64,31.94c-1.69,8-2,15.81,2.63,23.14c4.41,6.99,10.66,9.16,17.64,4.73
		c4.72-3,9.01-7.04,12.57-11.38c3.76-4.59,6.45-10.06,9.53-15.19c4.32-7.17,11.41-10.11,19.04-7.8c7.39,2.23,11.66,8.5,11.08,16.87
		c-0.67,9.8-2.17,19.58-2.26,29.38c-0.05,5.29,1.35,10.91,3.4,15.84c6.21,14.98,19.93,19.48,34.51,12.04
		c13.35-6.81,19.65-18.72,23.05-32.39c1.81-7.31,2.36-14.94,3.38-22.43c1.36-10,10.32-17.12,19.25-15.21
		c6.39,1.37,12.9,7.65,12.71,14.26c-0.88,30.67-7.79,59.04-34.32,78.43c-15.54,11.36-32.97,16.27-52.04,11.05
		c-22.17-6.07-33.76-22.32-39.88-43.37c-0.22-0.76-0.39-1.54-0.62-2.31C572.79,544.55,572.61,544.33,572.31,543.8z"/>
	<path class="st2" d="M78.85,181.76c2.63-3.97,4.55-7.66,7.21-10.7c6.74-7.68,13.08-15.94,20.9-22.37
		c17.37-14.28,40.3-7.36,47.53,14.03c2.27,6.71,3.17,14,3.84,21.1c1.48,15.76,2.07,31.61,3.71,47.36c1.04,9.99-6.71,17.31-16.08,18
		c-7.94,0.59-15.41-6.56-16.15-15.61c-1.44-17.51-2.71-35.03-4.07-52.54c-0.12-1.57-0.43-3.12-0.8-5.81
		c-3.89,4.34-7.38,7.77-10.34,11.61c-6.62,8.59-11.77,18.02-15.09,28.4c-1.09,3.42-2.15,6.87-3.58,10.15
		c-7.33,16.76-28.46,20.24-40.93,6.77c-6.4-6.92-8.76-15.4-8.92-24.56c-0.19-11.3-0.16-22.61-0.24-33.92c0-0.52-0.09-1.05-0.25-2.82
		c-1.24,2.14-2.22,3.32-2.66,4.68c-4.35,13.37-8.61,26.77-12.87,40.17c-0.64,2.02-1.05,4.12-1.67,6.16
		c-1.51,4.98-4.27,7.38-8.57,7.6c-4.57,0.23-8.91-2.12-10.36-6.61c-1.62-5.03-3.14-10.27-3.45-15.5
		c-1.29-21.71,4.67-41.61,16.57-59.66c4.87-7.39,11.46-13,20.44-14.96c16.23-3.55,30.23,5.7,33.17,22.35
		c1.36,7.7,1.62,15.6,2.38,23.41C78.67,179.34,78.73,180.21,78.85,181.76z"/>
	<path class="st2" d="M1198.18,180.25c6.33-7.81,12.7-16.29,19.76-24.15c3.76-4.19,8.34-7.95,13.2-10.81
		c15.35-9.03,34.39-2.57,41.33,14.56c3.03,7.48,4.22,15.91,5.07,24.02c1.65,15.74,2.11,31.61,3.75,47.35
		c1.03,9.91-6.71,17.29-16.13,17.95c-7.95,0.56-15.38-6.61-16.11-15.65c-1.43-17.51-2.7-35.03-4.07-52.54
		c-0.12-1.55-0.44-3.09-0.85-5.87c-4.23,4.86-8.04,8.73-11.27,13.03c-6.43,8.57-11.36,17.96-14.5,28.26
		c-0.93,3.05-1.93,6.1-3.21,9.01c-7.36,16.74-28.5,20.19-40.95,6.69c-6.39-6.93-8.73-15.41-8.89-24.57
		c-0.19-11.17-0.16-22.35-0.23-33.52c0-0.65-0.09-1.3-1.02-2.33c-1.79,3.84-4.06,7.53-5.28,11.53
		c-3.95,12.96-7.51,26.03-11.24,39.06c-1.12,3.93-3.57,6.58-7.73,7.09c-4.34,0.54-7.89-1.13-10.24-4.82
		c-0.98-1.54-1.58-3.36-2.1-5.13c-3.31-11.24-3.26-22.6-0.87-33.97c2.86-13.63,7.21-26.72,15.45-38.17
		c5.02-6.96,11.24-12.49,19.88-14.51c16.27-3.82,30.58,5.51,33.52,22.32C1196.94,163.6,1197.35,172.28,1198.18,180.25z"/>
	<path class="st2" d="M915.25,708.61c-18.15,0.13-34.04-6.48-48.76-16.45c-14.47-9.8-26.45-22.29-37.59-35.6
		c-12.56-15-24.96-30.14-37.38-45.26c-3.14-3.83-4.63-8.28-4.75-13.27c-0.19-8.04,6-14.01,13.88-12.36
		c3.86,0.81,8.09,2.64,10.86,5.34c9.9,9.64,19.28,19.83,28.8,29.86c12.37,13.03,24.32,26.48,37.16,39.02
		c8.36,8.16,18.81,13.49,30.45,15.83c10.42,2.09,20.28,0.51,28.66-6.24c7.45-6,9.38-14.26,7.45-23.43
		c-2.96-14.07-10.69-25.72-19.32-36.78c-7.9-10.12-17.23-18.85-27.67-26.37c-5.58-4.03-8.66-9.44-7.55-16.49
		c1.06-6.66,4.99-11.11,11.54-12.88c4.22-1.14,8.56-1.22,12.3,1.44c26.82,19.1,48.2,42.64,59.5,74.17
		c5.44,15.19,6.36,30.6-0.7,45.48c-10.74,22.64-29.72,32.74-54.09,33.97C917.12,708.65,916.19,708.61,915.25,708.61z"/>
	<path class="st2" d="M967.2,530.94c-3.73-8.09-7.24-15.38-10.48-22.8c-5.85-13.42-9.47-27.34-9.18-42.15
		c0.74-38.47,29.19-62.03,66.61-58.74c11.99,1.05,23.26,4.62,33.74,10.26c13.23,7.11,26.19,14.75,39.11,22.42
		c5.94,3.53,9.06,9.03,8.26,16.11c-1.31,11.57-12.82,17.4-23.76,11.85c-6.99-3.55-13.69-7.67-20.46-11.64
		c-10.79-6.33-21.49-12.79-33.8-15.9c-7.29-1.84-14.6-2.1-21.63,0.44c-8.83,3.19-13.14,10.34-15.04,19.19
		c-1.82,8.47-0.99,16.85,2.05,24.75c4,10.4,8.67,20.55,13.3,30.7c3.63,7.95,6.69,15.86,5.54,24.91c-1.65,12.98-11.81,23-24.82,24.21
		c-10.33,0.96-19.75-2.18-28.86-6.42c-18.79-8.75-34.55-21.04-44.25-39.82c-1.95-3.79-3.19-8.3-3.39-12.54
		c-0.28-5.88,2.82-10.57,8.49-12.78c5.78-2.26,11.08-0.73,15.37,3.56c3.66,3.67,7.06,7.61,10.4,11.59
		c7.1,8.47,15.13,15.73,25.33,20.28c1.57,0.7,3.2,1.3,4.81,1.9C965.12,530.52,965.75,530.61,967.2,530.94z"/>
	<path class="st2" d="M202.78,778.55c0-2.93-0.12-5.87,0.02-8.79c0.67-14.49-10.26-20.46-19.93-21.56
		c-3.67-0.42-7.44-0.24-11.14,0.01c-7.53,0.51-12.53-2.21-14.68-8.28c-2.09-5.91,0.05-11.8,6.13-15.8
		c11.84-7.79,24.6-8.42,37.42-3.3c25.86,10.32,36.31,29.85,33.28,55.65c-4.82,40.97,26.83,70.72,59.59,74.78
		c17.51,2.17,33.74-2.61,48.91-11.39c14.4-8.34,25.59-19.81,34.06-34.07c3.57-6,9.1-8.42,15.93-7.63
		c6.51,0.76,11.25,4.87,12.74,11.04c1.17,4.83,0.54,9.44-2.21,13.78c-20.46,32.33-49.09,52.61-87.04,59.11
		c-47.92,8.21-99.63-25.44-110.87-72.65c-2.37-9.96-2.36-20.49-3.45-30.76C201.95,778.63,202.36,778.59,202.78,778.55z"/>
	<path class="st2" d="M1420.65,851.4c26.55-0.79,48.07-12.12,65.3-31.95c3.56-4.1,6.54-8.73,9.46-13.33
		c5.09-8,14.65-10.56,22.54-5.78c6.99,4.24,9.26,14.2,4.54,21.87c-20.32,33-49.34,53.51-87.75,59.93
		c-47.91,8.01-99.23-25.64-110.52-72.68c-1.99-8.29-1.96-17.11-2.49-25.7c-0.3-4.77,0.27-9.58,0.27-14.37
		c0.01-12.23-8.27-20.77-20.65-21.26c-3.71-0.14-7.44-0.05-11.15,0.12c-7.04,0.33-11.82-2.46-13.9-8.3
		c-2.02-5.67-0.18-11.43,5.45-15.34c11.93-8.3,24.94-9,38.06-3.8c25.55,10.12,36.34,29.69,33.29,56.43
		c-4.62,40.45,27.05,69.88,59.96,74.12C1415.55,851.68,1418.12,851.4,1420.65,851.4z"/>
	<path class="st2" d="M392.21,325.73c0.15,24.25-11.91,40.37-31.36,44.71c-8.98,2-17.71,0.47-26.42-1.65
		c-5.55-1.36-11.06-2.97-16.66-4.05c-7.36-1.43-11.31,1.79-11.41,9.34c-0.1,7.7,0.28,15.4,0.35,23.1c0.04,4.62-2.21,7.87-6.49,9.58
		c-4.31,1.72-7.91,0.46-11.35-2.51c-13.49-11.65-15.56-26.8-11.42-42.62c3.97-15.15,14.5-24.86,30.4-27.68
		c7.87-1.39,15.63-0.18,23.31,1.67c5.43,1.31,10.86,2.62,16.3,3.85c10.99,2.5,14.86-4.1,13.14-13.73
		c-2.78-15.55-13.36-24.45-28.14-28.25c-14.66-3.77-28.29-0.11-40.71,7.94c-15.09,9.78-24.05,23.95-27.23,41.48
		c-1.67,9.21-9.48,13.49-17.31,12.92c-7.22-0.52-12.33-5.28-13.35-12.49c-1.09-7.68,1.12-14.85,3.84-21.77
		c12.85-32.73,36.12-53.25,71.08-59.7c31.4-5.8,61.55,8.43,76.59,36.15C389.84,310.21,392.3,318.99,392.21,325.73z"/>
	<path class="st2" d="M1511.47,326.99c0.01,23.09-11.85,38.95-31.16,43.39c-9.12,2.1-17.97,0.54-26.8-1.64
		c-5.42-1.34-10.8-2.88-16.27-3.96c-7.61-1.51-11.56,1.69-11.64,9.47c-0.08,7.7,0.3,15.4,0.34,23.1c0.03,4.64-2.34,7.81-6.64,9.46
		c-4.17,1.6-7.69,0.42-11.02-2.42c-13.57-11.57-15.68-26.71-11.63-42.56c3.93-15.36,14.56-25.13,30.62-27.93
		c7.86-1.37,15.63-0.14,23.31,1.75c5.29,1.3,10.61,2.52,15.92,3.77c11.23,2.64,15.13-4.15,13.33-13.87
		c-2.88-15.54-13.5-24.37-28.28-28.12c-14.52-3.68-28.03-0.07-40.35,7.86c-15.26,9.81-24.27,24.1-27.45,41.78
		c-1.53,8.48-8.98,13.43-17.45,12.74c-7.03-0.58-12.1-5.25-13.15-12.25c-1.17-7.81,1.1-15.11,3.87-22.16
		c12.9-32.72,36.22-53.23,71.2-59.56c34.18-6.18,67.09,11.64,79.44,42.88c1.31,3.32,2.21,6.84,2.91,10.34
		C1511.2,322.17,1511.3,325.38,1511.47,326.99z"/>
	<path class="st2" d="M824.74,58.89c39.91,0.13,73.72,30.57,77.94,70.36c1.16,10.93-1.73,21.15-6.84,30.73
		c-2.88,5.4-6.01,10.68-9.32,15.82c-8.15,12.65,2.72,22.19,12.72,22.69c13.18,0.65,21.81-6.06,28.28-16.62
		c1.8-2.95,3.31-6.11,5.39-8.84c4.15-5.44,11.17-7.59,17.12-5.65c5.62,1.83,9.37,7.25,9.86,14.19c0.6,8.47-2.74,15.69-7.58,22.2
		c-11.8,15.87-27.38,25.67-47.31,27.05c-28.16,1.95-50.67-16.37-53.65-42.03c-1.12-9.64,1.84-18.43,6.22-26.8
		c2.28-4.36,4.66-8.72,7.5-12.72c7.41-10.41,6.32-21.01,1.07-31.69c-11.74-23.88-40.45-33.38-64.31-21.49
		c-5.83,2.9-11.77,5.58-17.72,8.22c-5.09,2.27-9.67,1.09-13.54-2.74c-3.96-3.92-4.44-8.47-2.35-13.57
		c4.08-9.97,11.94-16.13,21.07-20.9C799.7,61.64,812.38,58.85,824.74,58.89z"/>
	<path class="st2" d="M1045.71,70.37c-4.32,5.16-6.64,11.36-8.32,17.76c-1.38,5.26-2.16,10.68-3.23,16.02
		c-0.28,1.43-0.54,2.88-0.94,4.28c-6.62,23.15-28.38,29.83-46.57,14.08c-10.98-9.51-17.39-21.75-17.14-36.35
		c0.1-5.95,2.79-12.06,5.2-17.71c1.83-4.27,6.38-5.03,10.69-4.35c4.05,0.64,6.94,2.79,8.14,7.15c1.58,5.75,3.51,11.43,5.56,17.04
		c0.83,2.26,2.36,4.27,3.96,6.28c1.93-12.51,5.7-24.19,11.52-35.19c3.99-7.54,9.15-14.04,16.66-18.4
		c12.49-7.23,28.21-4.7,37.82,6.08c7.73,8.67,10.76,19.12,11.29,30.43c0.22,4.78,0.1,9.59,0.02,14.38
		c-0.18,10.82,5.37,18.86,12.95,27.04c0.65-2.7,1.41-4.62,1.55-6.59c1.06-15.27,2-30.54,2.99-45.81c0.55-8.46,6-14.37,14.37-15.65
		c7.1-1.09,14.31,3.28,16.99,10.39c0.46,1.22,0.87,2.59,0.78,3.86c-1.28,18.84-2.56,37.69-4.07,56.51
		c-0.24,2.98-1.38,5.97-2.52,8.79c-9.24,22.94-34.68,28.59-52.68,11.16c-14.26-13.81-22.85-30.62-22.45-51.12
		c0.08-4.39,0.16-8.8-0.05-13.18c-0.11-2.3-0.83-4.57-1.27-6.86C1046.54,70.4,1046.12,70.38,1045.71,70.37z"/>
	<path class="st2" d="M934.79,855.73c-16.52-0.12-30.58-6.51-42.99-16.89c-8.27-6.92-16.16-14.29-24.47-21.16
		c-3.77-3.12-7.98-5.79-12.27-8.17c-10.27-5.69-19.58-4.75-28.29,3.2c-7.17,6.55-13.82,13.66-20.69,20.54
		c-3.62,3.63-7.88,4.88-12.78,3.3c-5.99-1.94-8.94-7.71-7.55-14.45c5.59-27.03,35.6-49.69,62.81-47.15
		c11.13,1.04,21.2,5.51,29.96,12.24c10.12,7.78,19.54,16.48,29.55,24.4c5.18,4.1,10.63,8.23,16.61,10.89
		c12.16,5.42,27.01-0.22,35.43-12.48c7.38-10.74,7.69-22.17,2.81-33.81c-4.46-10.65-11.96-18.8-22.03-24.51
		c-3.97-2.25-6.96-5.3-8.25-9.82c-1.65-5.73-0.56-10.94,3.53-15.18c4.2-4.36,9.49-5.81,15.38-3.92
		c12.45,3.99,21.59,12.46,29.3,22.53c14.87,19.41,21.18,41.14,13.58,64.88c-7.72,24.11-24.5,39.42-49.71,44.64
		C941.48,855.5,938.1,855.45,934.79,855.73z"/>
	<path class="st2" d="M390.42,966.05c0.61-8.94,1.52-21.42,2.27-33.9c0.13-2.23-0.13-4.53-0.59-6.73
		c-2.33-11.26-13.14-17.69-23.84-13.08c-7.2,3.1-13.56,8.18-20.18,12.56c-2.98,1.97-5.57,4.55-8.51,6.58
		c-3.88,2.68-8.05,2.55-12.06,0.27c-4-2.27-5.84-6.03-5.15-10.44c0.61-3.88,1.56-7.91,3.32-11.37
		c12.08-23.69,41.41-35.87,66.62-27.75c19.07,6.14,28.63,20.16,31.8,39.26c2.1,12.67-0.49,25.2-1.03,37.8
		c-0.38,8.7,0.1,17.51,1.15,26.16c0.45,3.7,2.85,7.44,5.16,10.58c3.94,5.33,9.5,6.75,16,5.13c9.11-2.26,15.9-7.78,20.23-15.71
		c4.5-8.24,7.92-17.07,11.74-25.68c0.97-2.18,1.49-4.56,2.48-6.73c3.72-8.19,12.95-11.93,21.04-8.64
		c7.65,3.12,11.59,11.99,8.82,20.27c-4.99,14.91-10.46,29.62-19.81,42.5c-10.96,15.1-25.45,24.26-44.18,26.42
		c-20.49,2.36-39.25-8.88-48.93-29.37C391.56,993.21,390.1,981.57,390.42,966.05z"/>
	<path class="st2" d="M895.1,241.43c13.53,0.26,25.43,4.53,34.05,15.38c8.78,11.05,10.14,23.32,3.57,35.84
		c-2.81,5.35-7.23,9.83-10.57,14.94c-2.58,3.95-5.29,8.05-6.7,12.47c-1.81,5.68,1.76,9,7.4,7.18c8.08-2.61,15.95-5.89,23.98-8.65
		c8.23-2.83,16.62-3.64,25.05-0.82c19.42,6.5,29,28.75,20.99,49.19c-5.26,13.42-15.88,21.67-28.24,28.03
		c-2.6,1.34-5.29,2.5-7.99,3.61c-7.51,3.07-15,0.42-19.57-6.84c-4.12-6.55-3.14-14.21,2.81-19.48c2.05-1.82,4.67-2.98,7-4.5
		c4.53-2.95,9.08-5.85,13.5-8.95c1.01-0.71,1.93-2.07,2.14-3.27c0.35-2,0.7-4.42-0.15-6.04c-0.43-0.81-3.66-0.74-5.33-0.19
		c-5.67,1.87-11.21,4.13-16.8,6.25c-9.18,3.48-18.52,6.06-28.42,3.9c-19.34-4.21-31.83-23.42-28.66-43.61
		c1.77-11.31,7.22-20.73,14.41-29.33c1.71-2.04,3.45-4.05,5.16-6.09c2.23-2.65,1.42-4.45-1.53-5.79
		c-6.77-3.08-13.39-1.77-19.63,1.22c-4.39,2.11-8.49,4.95-12.39,7.9c-6.18,4.65-13.19,5.66-17.64,2.05
		c-4.27-3.46-5.5-11.33-2.24-17.75c7.56-14.87,20.24-22.8,36.27-25.93c1.56-0.3,3.15-0.57,4.73-0.69
		C891.9,241.34,893.51,241.43,895.1,241.43z"/>
	<path class="st2" d="M679.62,294.17c1.2,18.46,7.51,34.63,20.55,48.06c7.32,7.54,14.88,14.94,21.39,23.14
		c9.54,12.03,13.57,25.83,9.49,41.17c-1.65,6.23-5.08,11.44-10.7,14.87c-4.51,2.75-9.28,3.52-13.91,0.41
		c-4.57-3.07-7.13-7.56-5.81-13.03c3.24-13.45-2.07-23.52-11.57-32.36c-10.35-9.63-20.2-19.76-27.34-32.12
		c-13.74-23.8-18.28-49.03-9.93-75.59c7.97-25.33,34.11-42.87,60.47-41.52c26.83,1.37,51.11,21.62,56.97,47.49
		c1.19,5.25,1.01,10.31-2.1,14.95c-3.5,5.22-10.15,8.01-15.97,6.76c-6.81-1.47-11.79-6.15-12.78-12.64
		c-1.92-12.5-15.14-24.61-28.64-24.49c-13.19,0.12-27.76,11.31-29.09,25.34C680.34,287.79,679.97,290.96,679.62,294.17z"/>
	<path class="st2" d="M566.31-1.86h-36.44c0.55,1.08,1.1,2.17,1.66,3.25c8.43,16.29,17.39,32.31,22.35,50.19
		c5.84,21.02,3.34,40.57-9.43,58.49c-3.86,5.42-8.08,10.58-11.91,16.02c-3.32,4.72-3.21,10.96-0.12,15.36
		c3.19,4.53,8.7,6.54,14.46,5.17c9.81-2.33,16.43-9.13,22.23-16.67c19.26-25.02,23.78-53.14,16.77-83.48
		C581.93,29.3,574.32,13.64,566.31-1.86z"/>
	<path class="st2" d="M514.94,1083.86h34.49c-2.56-5.87-4.81-11.87-6.5-18.13c-4.86-18.02-4.97-35.42,5.71-51.8
		c1.87-2.86,2.19-6.73,3.23-10.14c-0.13-9.57-9.44-16.92-18.57-14.46c-7.55,2.03-12.14,7.39-15.65,13.9
		c-10.68,19.8-12.07,40.8-7.74,62.44C511.15,1071.9,512.88,1077.94,514.94,1083.86z"/>
	<path class="st2" d="M1326.33,44.68c-14.33-23.7-33.66-39.37-58.04-46.54h-52.72c-0.37,0.12-0.75,0.23-1.12,0.36
		c-53.24,18.81-70.09,81.95-29.99,123.02c5.7,5.83,12.71,9.12,20.88,9.72c3.72,0.27,7.41-0.15,9.51-3.7
		c2.09-3.53,0.41-6.87-1.28-10.13c-5.15-9.91-10.51-19.73-15.26-29.83c-12.25-26.03,4.78-51.51,26.45-58.46
		c20.88-6.71,39.76-1.5,56.46,11.85c13.38,10.7,21.7,24.96,26.89,41.18c2.91,9.09,11.75,14,19.97,11.35
		c7.9-2.54,14.75-11.55,10.7-21.29C1334.9,62.92,1331.5,53.24,1326.33,44.68z"/>
	<path class="st2" d="M206.94,44.46C192.6,20.8,173.24,5.19,148.81-1.86H96c-2.85,0.97-5.67,2.11-8.43,3.42
		C38.9,24.63,28.05,83.9,65.4,121.71c5.53,5.59,12.31,8.77,20.16,9.51c3.83,0.36,7.71,0.09,9.97-3.55c2.27-3.66,0.39-7.1-1.35-10.46
		c-5.08-9.8-10.35-19.51-15.07-29.48c-12.38-26.19,4.84-51.8,26.64-58.68c20.76-6.55,39.52-1.39,56.11,11.85
		c13.5,10.77,21.87,25.14,27.07,41.52c2.85,8.99,11.98,13.77,20.15,11.05c8.93-2.98,13.83-12.04,10.41-21.07
		C215.89,62.85,212.19,53.13,206.94,44.46z"/>
	<path class="st2" d="M1437.2,0.62c-10.37,1.68-19.17,6.91-27.95,12.22c-3.86,2.33-7.81,4.57-11.94,6.37
		c-4.04,1.76-6.39,0.12-6.82-4.27c-0.42-4.34,1.68-7.67,4.56-10.62c2.44-2.51,5.17-4.51,8.09-6.18h-42.07
		c-2.46,6.24-3.47,13.19-2.62,21.02c2.52,23.27,24.08,38.3,46.39,31.38c8.12-2.52,15.51-7.4,23.22-11.23
		c4.51-2.24,8.9-4.73,13.52-6.69c3.04-1.3,5.07,0.35,5.96,3.44c1.23,4.28-0.75,7.46-3.5,10.39c-5.13,5.45-12,7.05-18.91,8.63
		c-6.99,1.6-14.03,3.01-20.92,4.96c-4.29,1.22-6.9,4.5-7.23,9.1c-0.36,4.9,1.43,8.97,5.74,11.48c2.26,1.32,4.81,2.38,7.37,2.93
		c17.83,3.84,34.71,1.77,49.86-9.01c12.47-8.87,19.42-20.88,19.62-36.44c0-0.67,0.01-1.33,0-2
		C1479.16,13.09,1459.87-3.05,1437.2,0.62z"/>
	<path class="st2" d="M317.79,0.65c-10.22,1.67-18.91,6.83-27.59,12.07c-3.97,2.4-8.05,4.7-12.29,6.55
		c-3.88,1.69-6.09,0.12-6.62-4.1c-0.55-4.35,1.52-7.72,4.37-10.69c2.47-2.58,5.25-4.64,8.23-6.34h-42.04
		c-2.5,6.3-3.51,13.31-2.62,21.19c2.61,23.23,24.23,38.14,46.56,31.16c7.99-2.5,15.27-7.29,22.86-11.06
		c4.5-2.24,8.85-4.85,13.5-6.72c3.43-1.38,5.53,0.26,6.32,3.9c0.9,4.14-1.11,7.15-3.78,9.95c-5.17,5.43-12.05,6.97-18.95,8.54
		c-6.99,1.59-14.03,3.01-20.9,5.01c-4.27,1.24-6.81,4.59-7.09,9.21c-0.29,4.75,1.45,8.71,5.56,11.2c2.24,1.35,4.8,2.41,7.35,2.98
		c17.97,3.99,34.97,1.87,50.22-9.04c12.45-8.9,19.35-20.95,19.48-36.52c0-0.53,0.01-1.07,0-1.6C360,13.11,340.68-3.1,317.79,0.65z"
		/>
	<path class="st2" d="M317.16,1083.86c-5.34-5.87-12.23-7.67-19.62-6.04c-6.62,1.47-13.09,3.42-19.25,6.04H317.16z"/>
	<path class="st2" d="M1436.42,1083.86c-4.4-5.15-11.82-7.8-19.56-6.07c-6.65,1.48-13.14,3.45-19.33,6.07H1436.42z"/>
	<path class="st2" d="M896.02,1083.86c-1.11-3.52-2.08-7.09-2.75-10.69c-1.04-5.54,0.57-6.84,6.12-5.44
		c6.18,1.55,12.17,3.8,18.31,5.52c17.71,4.96,33.83,2.8,46.92-11.28c9.17-9.85,12.75-21.89,13.81-35.31
		c-1.56-7.38-2.44-14.98-4.8-22.1c-6.99-21.16-20.17-38.29-36.81-52.73c-5.67-4.92-12.07-9.24-18.71-12.77
		c-7.47-3.97-16.18-1.36-20.27,4.89c-4.53,6.91-3.33,15.26,3.25,21.25c2.15,1.96,4.65,3.55,7.03,5.26
		c12.97,9.32,23.42,20.86,30.92,35.01c3.59,6.76,6.31,13.77,6.39,21.59c0.13,12.33-7.53,18.21-19.26,14.95
		c-8.31-2.31-16.6-4.96-25.08-6.31c-17.78-2.83-34.21,7.92-38.73,24.66c-2.12,7.85-1.67,15.74,0.21,23.52H896.02z"/>
	<path class="st2" d="M879.87-1.86c2.45,2.41,5.2,4.63,8.32,6.62c5.07,3.23,10.91,3.3,14.96,0.17c1.95-1.51,3.24-3.99,3.73-6.79
		H879.87z"/>
	<path class="st2" d="M751.11,875c-0.01,29.07-17.84,54.23-44.14,62.28c-23.57,7.21-49.49-2.37-61.12-22.59
		c-9.43-16.4-8.16-35.48,3.25-48.85c11.78-13.79,31.97-17.91,46.65-9.51c8.75,5,11.77,14.42,7.32,22.86
		c-3.98,7.56-13.35,10.04-22.19,5.89c-3.95-1.86-8.51,0.85-8.97,5.33c-0.54,5.28,2.98,11.55,7.97,14.19
		c8.51,4.5,19.06,3.41,26.58-2.73c15.95-13.03,17.17-38.33,1.64-51.63c-5.56-4.77-13.04-7.55-20.01-10.34
		c-5.9-2.36-9.75-6.57-9.66-12.98c0.09-6.03,3.91-10.53,10.12-12.25c9.74-2.7,18.98-1.21,27.9,3.08
		C737.94,828.07,751.12,849.89,751.11,875z"/>
	<path class="st2" d="M467.95,393.52c0.35-1.39,0.66-4.1,1.71-6.47c2.75-6.21,9.26-8.83,15.27-5.7c3.92,2.04,7.33,5.14,10.76,8.01
		c1.71,1.43,2.9,3.46,4.4,5.15c4.99,5.64,6.22,5.72,10.96-0.34c5.64-7.23,10.49-15.12,16.54-21.98
		c14.4-16.33,33.08-24.64,54.5-26.87c33.85-3.53,61.6,9.64,85.55,32.28c6.35,6,11.96,12.85,17.47,19.67
		c5.47,6.76,4.51,14.79-1.87,21.16c-5.7,5.7-13.54,6.26-20.23,1.07c-2.48-1.92-4.48-4.52-6.49-6.97
		c-13.12-16.01-28.59-28.67-49.17-33.61c-18.15-4.36-35.19-1.39-50.42,9.6c-3.59,2.59-6.43,6.33-9.26,9.82
		c-5.34,6.61-9.86,13.99-15.73,20.07c-17.65,18.28-41.93,16.14-56.87-4.53C470.94,408.17,467.93,402.04,467.95,393.52z"/>
	<path class="st2" d="M1487.52,591.02c-24.47-0.99-44.79-9.55-61.18-26.81c-4.81-5.06-8.42-10.98-9.72-18.03
		c-0.86-4.68,0.2-8.79,3.98-11.83c3.95-3.16,8.44-3.34,12.73-0.99c3.71,2.03,7.19,4.53,10.6,7.07c10.73,7.98,21.6,15.64,35.26,17.74
		c19.37,2.99,43.19-6.62,48.34-30.46c2.67-12.37,0.1-24.04-5.61-35.12c-5.99-11.6-14.91-20.66-25.05-28.62
		c-5.22-4.1-8.62-8.99-8.05-15.98c0.92-11.27,14.93-18.58,23.97-11.97c20.31,14.83,36.39,33.14,44.21,57.61
		c14.23,44.56-11.43,87.67-57.15,96.07C1495.55,590.49,1491.13,590.65,1487.52,591.02z"/>
	<path class="st2" d="M362.98,590.82c-18.92-0.69-39.25-9.21-55.7-26.41c-4.93-5.15-8.63-11.16-9.93-18.36
		c-0.84-4.68,0.29-8.79,4.11-11.78c3.84-3.01,8.22-3.26,12.38-1.01c3.83,2.08,7.43,4.66,10.94,7.26
		c10.74,7.96,21.63,15.59,35.3,17.68c19.18,2.93,42.87-6.82,48.03-29.86c2.84-12.69,0.34-24.55-5.51-35.87
		c-5.99-11.6-14.95-20.63-25.09-28.59c-5.09-4-8.42-8.8-7.97-15.63c0.76-11.31,14.69-18.91,23.76-12.36
		c20.51,14.81,36.64,33.25,44.48,57.86c9.77,30.66,0.52,62.49-23.35,80.99C400.98,585.19,384.64,590.81,362.98,590.82z"/>
	<path class="st2" d="M444.59,756.07c0.21,15.25,4.52,28.28,12.87,40.01c3.99,5.61,8.68,10.76,10.14,17.9
		c0.94,4.63,0.74,8.8-2.72,12.22c-3.49,3.45-7.62,4.08-12.51,3.06c-7.5-1.56-13.19-5.68-17.76-11.39
		c-20.52-25.61-27.44-54.45-18.43-86.17c7.48-26.32,26.75-40.95,52.53-46.44c31.03-6.61,56.25,5.64,77.68,27.37
		c2.98,3.02,5.62,6.41,8.19,9.8c5.01,6.59,4.28,14.74-1.7,20.98c-5.39,5.63-13.28,6.39-19.96,1.63c-2.13-1.51-3.95-3.56-5.61-5.6
		c-9.33-11.51-20.61-20.12-35.44-22.92C469.75,712.34,443.25,725.94,444.59,756.07z"/>
	<path class="st2" d="M1070.67,332.61c2.08-38.01,20.61-64.08,54.94-79.2c18.79-8.27,38.46-10.06,58.66-8.06
		c20.52,2.03,39.9,7.91,58.05,17.63c9.14,4.89,11.35,15.6,5.31,23.51c-4.33,5.68-11.3,7.75-17.81,4.86
		c-12.79-5.69-25.71-11-39.54-13.58c-23.11-4.32-45.25-2.17-64.95,11.69c-17.41,12.24-25.43,29.16-23.06,50.67
		c0.64,5.8,1.27,11.68,1.05,17.49c-0.38,10.13-8.13,14.41-16.97,9.49c-9.19-5.12-12.54-14.11-14.47-23.73
		C1071.14,339.73,1071.03,335.98,1070.67,332.61z"/>
	<path class="st2" d="M1329.86,374.46c29.76,1.09,52.55,13.16,69.71,35.93c4.8,6.37,4.04,14.35-1.57,20.37
		c-5.4,5.8-12.71,6.91-19.52,2.64c-2.2-1.38-4.23-3.28-5.82-5.34c-17.6-22.87-46.46-27.64-70.21-11.51
		c-18.27,12.41-25.61,35.41-18.31,57.71c2.02,6.18,4.41,12.25,6.43,18.43c1.98,6.04,0.08,11.44-5,15.08
		c-4.91,3.52-9.95,3.14-15.41-0.76c-12.18-8.72-17.06-21.59-19.4-35.46c-7.6-45.1,20.81-86.25,65.6-95.45
		C1321.15,375.11,1326.1,374.9,1329.86,374.46z"/>
	<path class="st2" d="M210.44,374.46c29.69,1.02,52.4,13,69.61,35.51c5.3,6.93,4.36,15.3-2.08,21.57
		c-5.78,5.62-13.88,5.91-20.65,0.58c-1.65-1.3-3.07-2.94-4.35-4.62c-17.46-22.82-48.38-27.12-71.34-9.88
		c-17.23,12.93-23.81,34.98-16.78,56.54c2.02,6.19,4.41,12.25,6.43,18.43c2.03,6.21,0.04,11.77-5.22,15.35
		c-4.86,3.31-9.78,2.9-15.09-0.89c-12.2-8.7-17.09-21.56-19.46-35.43c-7.7-45.01,20.72-86.28,65.51-95.52
		C201.81,375.13,206.76,374.9,210.44,374.46z"/>
	<path class="st2" d="M804.22,270.95c-6.29-1-12.66-1.63-18.84-3.1c-7.38-1.76-13.33-8.5-13.7-14.5
		c-0.61-9.94,6.82-17.37,17.33-16.91c5.82,0.25,11.6,1.45,17.41,1.6c4.61,0.12,8.96-1.34,11.85-5.42c3.3-4.64,2.57-7.93-2.9-9.26
		c-5.76-1.41-11.82-1.49-17.7-2.46c-8.23-1.36-16.86-1.83-24.51-4.78c-18.56-7.14-27.97-22.34-31.59-41.13
		c-2.93-15.22-1.31-30.22,5.27-44.47c2.41-5.23,6.37-9.05,11.85-10.5c8.62-2.29,15.61,4.09,15.48,14.31
		c-0.09,6.76-1.51,13.49-1.75,20.26c-0.19,5.26-0.18,10.71,0.98,15.79c2.71,11.89,10.33,17.75,22.46,18.18
		c9.99,0.36,19.97,0.83,29.52,4.16c13.38,4.67,23.23,12.94,26.41,27.38c3.88,17.66-6.82,37.53-24.23,45.49
		C820.18,268.96,812.42,270.46,804.22,270.95z"/>
	<path class="st2" d="M1125.95,362.04c-0.1-26.08,19.72-49.51,46.82-55.05c23.53-4.81,44.2,2.29,62.76,16.49
		c13.74,10.51,24.2,23.91,32.43,39.04c4.46,8.2,1.44,17.98-6.59,22.38c-7.29,3.99-16.88,1.22-21.4-6.53
		c-5.52-9.47-11.55-18.5-19.71-25.96c-9.66-8.83-20.79-14.44-34.03-14.69c-15.57-0.3-29.27,11.4-28.31,25.54
		c0.31,4.49,2.15,9.02,3.95,13.25c3.34,7.81,7.41,15.31,10.7,23.13c2.13,5.06,2.89,10.49,1.41,16.03
		c-1.91,7.16-7.46,10.52-14.26,7.59c-4.14-1.79-8.47-4.43-11.23-7.88c-10.62-13.32-18.8-28.02-22.18-44.98
		c-0.16-0.78-0.33-1.57-0.35-2.36C1125.92,366.03,1125.95,364.04,1125.95,362.04z"/>
	<path class="st2" d="M6.35,362.2c0.15-26.04,19.96-49.62,47.03-55.17c23.82-4.89,44.71,2.34,63.41,16.86
		c13.44,10.43,23.73,23.63,31.84,38.51c4.5,8.25,1.61,17.92-6.4,22.43c-7.37,4.14-17.06,1.3-21.67-6.67
		c-5.42-9.38-11.42-18.26-19.46-25.65c-9.64-8.86-20.75-14.47-33.99-14.79c-15.67-0.37-29.57,11.49-28.45,25.79
		c0.34,4.37,2.12,8.76,3.88,12.86c3.41,7.93,7.52,15.55,10.85,23.5c2.06,4.93,2.78,10.24,1.36,15.65
		c-1.94,7.39-7.49,10.7-14.52,7.64c-4.02-1.75-8.22-4.32-10.9-7.68c-10.64-13.31-18.87-27.99-22.2-44.97
		C6.61,367.8,6.6,364.97,6.35,362.2z"/>
	<path class="st2" d="M1216.52,993.04c-43.29,0-77.3-25.2-87.9-60.59c-1.03-3.43-1.24-7.45-0.61-10.97
		c1.32-7.36,7.34-12.33,14.04-12.59c7.4-0.29,14.44,4.47,16.67,11.84c3.25,10.75,9.1,19.7,17.44,27.16
		c21.65,19.37,56.92,16.71,75.56-5.57c4.87-5.82,5.35-12.37,4.08-19.18c-1.5-8.05-2.12-15.96-0.51-24.1
		c1.37-6.92,7.36-9.71,12.88-5.51c24.47,18.59,26.56,51.18,4.68,73.72C1255.65,984.95,1234.29,992.57,1216.52,993.04z"/>
	<path class="st2" d="M97.72,993.04c-43.79,0-78.11-25.54-88.42-60.75c-0.97-3.33-1.2-7.18-0.62-10.6
		c1.23-7.29,7.27-12.45,13.9-12.8c7.37-0.38,14.63,4.35,16.82,11.62c3.32,11.03,9.33,20.17,17.94,27.75
		c21.61,19.02,56.93,16.11,75.25-6.08c4.83-5.85,5.21-12.41,3.93-19.22c-1.52-8.05-2.09-15.98-0.45-24.1
		c1.39-6.88,7.42-9.49,12.99-5.24c24.4,18.63,26.36,51.25,4.42,73.73C136.24,985.03,114.87,992.61,97.72,993.04z"/>
	<path class="st2" d="M391.98,251.04c0.4-23.38,8.81-41.91,24.66-57.06c21.56-20.61,47.07-32.16,77.15-32.2
		c9.7-0.01,19.43,1.16,28.19,6.03c7.66,4.25,10.92,11.87,8.51,19.49c-2.32,7.33-9.05,11.65-16.65,10.64
		c-1.58-0.21-3.18-0.48-4.67-0.99c-16.85-5.8-32.82-2.45-48.28,4.89c-9.32,4.42-17.62,10.37-24.62,18.09
		c-11.89,13.1-14.54,28.25-10.19,44.97c2.31,8.87,4.99,17.64,7.02,26.57c0.68,2.97,0.35,6.42-0.4,9.43
		c-2.5,9.94-13.64,13.47-21.31,6.61c-3-2.68-5.57-6.19-7.35-9.81C396.61,282.6,392.66,266.55,391.98,251.04z"/>
	<path class="st2" d="M1230.79,431.59c-0.48,16.77-5.66,32.04-20.35,42.48c-12.54,8.92-26.81,9.65-41.35,6.55
		c-22.61-4.82-40.16-17.13-52.4-36.76c-3.95-6.33-6.35-13.2-4.46-20.89c2.31-9.37,10.97-13.17,19.06-7.94
		c3.25,2.1,6.36,4.95,8.52,8.14c8.17,12.1,18.48,21.32,32.75,25.29c4.02,1.12,8.39,1.51,12.58,1.39c6.4-0.18,10.09-3.56,11.96-9.85
		c3.15-10.55,0.85-20.83-3.18-30.37c-3.58-8.46-9.1-16.11-13.79-24.11c-2.33-3.97-5.56-7.66-6.84-11.94
		c-2-6.69,1.67-13.64,7.59-16.94c5.85-3.26,14.02-2.01,19.51,3.39c7.76,7.62,13.88,16.48,18.76,26.18
		C1226.24,400.31,1230.4,415.17,1230.79,431.59z"/>
	<path class="st2" d="M1064.52,681.68c21.46,0.47,37.4,8.32,51.21,20.87c4.51,4.1,8.6,8.73,12.4,13.5
		c6.63,8.32,5.57,17.78-2.27,23.9c-7.23,5.65-16.97,3.75-23.34-4.69c-5.37-7.11-11.79-12.89-19.67-17.17
		c-13.41-7.29-30.4-4.28-38.9,7.23c-4.16,5.62-4.02,12.22-3.93,18.74c0.27,19.97,5.75,39.16,8.76,58.72
		c0.45,2.95,0.27,6.14-0.32,9.08c-1.86,9.26-9.88,12.96-17.69,7.62c-3.63-2.48-6.64-6.54-8.72-10.52
		c-7.12-13.6-10.58-28.41-11.97-43.58c-1.06-11.49-2.48-23.24-1.17-34.58c2.84-24.6,19.02-41.4,43.37-47.24
		C1057.05,682.42,1061.98,682.06,1064.52,681.68z"/>
	<path class="st2" d="M208.87,164.34c0-8.75-0.36-17.53,0.13-26.26c0.31-5.65,1.33-11.4,2.95-16.82
		c4.01-13.44,12.57-22.99,26.55-26.03c14.24-3.1,26.66,1.75,35.66,12.82c7.09,8.71,12.88,18.56,18.65,28.25
		c3.4,5.72,0.22,14.61-5.82,19.09c-5.89,4.37-13.76,4.13-19.4-1.17c-2.76-2.59-4.89-5.92-7.01-9.11c-3-4.55-5.44-9.49-8.69-13.84
		c-1.52-2.03-4.35-3.08-6.59-4.57c-1.21,2.42-3.29,4.76-3.48,7.26c-0.65,8.2-0.5,16.47-0.89,24.7c-0.32,6.9-0.39,13.88-1.58,20.65
		c-3.61,20.56-23.08,29.79-40.75,18.72c-18.2-11.4-29.02-27.8-28.93-50.15c0.02-5.99,2-11.19,5.87-15.71
		c4.04-4.73,11.77-4.94,15.26,0.41c3.51,5.38,5.68,11.61,8.56,17.41c2.51,5.04,5.19,10,7.79,14.99
		C207.72,164.77,208.29,164.56,208.87,164.34z"/>
	<path class="st2" d="M1328.11,164.34c0-8.76-0.36-17.53,0.13-26.26c0.31-5.65,1.25-11.43,2.95-16.82
		c9.17-29.15,41.82-36.47,61.94-13.47c7.45,8.52,13.07,18.73,18.92,28.53c3.41,5.71,0.21,14.61-5.83,19.08
		c-5.89,4.36-13.75,4.1-19.41-1.18c-2.67-2.5-4.76-5.69-6.79-8.78c-2.99-4.55-5.41-9.51-8.66-13.86c-1.6-2.13-4.52-3.28-6.84-4.87
		c-1.21,2.42-3.28,4.77-3.47,7.27c-0.65,8.2-0.5,16.47-0.89,24.7c-0.32,6.9-0.39,13.88-1.58,20.65
		c-3.61,20.55-23.09,29.77-40.76,18.69c-18.19-11.41-29.01-27.81-28.91-50.16c0.03-5.99,2.01-11.19,5.88-15.71
		c4.05-4.73,11.77-4.93,15.26,0.43c3.51,5.38,5.68,11.62,8.56,17.42c2.51,5.04,5.19,10,7.79,14.99
		C1326.97,164.78,1327.54,164.56,1328.11,164.34z"/>
	<path class="st2" d="M1283.84,1072.92c5.45-2.11,10.73-4.72,16.25-6.6c7.11-2.42,13.15,3.22,11.65,10.63
		c-0.47,2.33-1.16,4.61-1.78,6.91h32.15c1.82-9.46,1.41-18.78-3.23-27.88c-8.85-17.36-28.33-25.66-47-19.87
		c-6.33,1.96-12.33,4.97-18.58,7.25c-1.53,0.56-3.44,0.1-5.17,0.11c-0.01-1.78-0.64-3.89,0.1-5.28c1.78-3.36,3.77-6.82,6.45-9.46
		c4.25-4.18,9.31-7.53,13.68-11.59c2.85-2.65,5.98-5.57,7.45-9.03c2.56-6.06,0.79-11.85-4.24-16.23
		c-5.44-4.73-11.84-5.23-17.88-1.89c-15.14,8.38-27.48,19.8-34.46,35.96c-4.86,11.27-4.13,22.7,1.72,33.51
		C1249.21,1074.73,1265.87,1079.87,1283.84,1072.92z"/>
	<path class="st2" d="M128.42,1067.98c11.02,9.9,23.61,9.72,36.65,4.76c5.34-2.03,10.48-4.61,15.89-6.45
		c6.89-2.33,13.14,3.3,11.58,10.37c-0.53,2.41-1.16,4.81-1.83,7.19h31.82c0.34-1.58,0.65-3.17,0.9-4.76
		c4.18-27.02-21.15-50.19-47.79-43.67c-7.56,1.85-14.67,5.46-22.05,8.09c-1.36,0.49-3.86,0.74-4.34,0.05
		c-0.81-1.15-1.13-3.59-0.42-4.71c2.8-4.44,5.62-9.04,9.3-12.71c4.69-4.67,10.45-8.24,15.31-12.75c4.68-4.35,5.32-10.11,2.99-15.85
		c-2.27-5.59-6.65-8.81-12.83-9.38c-4.77-0.44-8.92,1.18-12.79,3.68c-9.26,5.98-17.41,13.22-23.98,22.08
		c-5.9,7.95-10.01,16.66-9.84,23.75C117.11,1051.43,120.44,1060.81,128.42,1067.98z"/>
	<path class="st2" d="M1308.94-1.86c0.27,0.61,0.56,1.23,0.87,1.84c2.66,5.22,6.72,8.93,12.33,10.71
		c9.11,2.9,15.95-3.26,14.56-12.55H1308.94z"/>
	<path class="st2" d="M189.68-1.86c0.16,0.37,0.32,0.73,0.5,1.1c2.57,5.38,6.56,9.36,12.32,11.29c4.29,1.44,8.39,1.25,12.01-1.85
		c3.39-2.9,3.32-6.55,2.88-10.54H189.68z"/>
	<path class="st2" d="M503.39,554.07c13.75,0.27,26.85,8.63,36.07,23.48c7.38,11.87,10.19,25.32,13.16,38.72
		c2.02,9.1,4.27,18.13,9.38,26.16c6.21,9.77,13.25,11.54,23.33,5.84c7.35-4.16,13.17-10.05,17.98-16.77
		c5.51-7.69,15.53-7.16,22.04-2.59c6.46,4.53,8.06,14.25,3.1,21.04c-11.19,15.29-24.68,27.67-43.9,31.86
		c-18.86,4.11-33.6-3.18-45.44-17.44c-9.57-11.52-13.39-25.51-16.63-39.75c-1.91-8.42-3.53-17.01-6.52-25.06
		c-5.52-14.86-12.04-20.89-28.32-20.87c-2.8,0-5.6,0.06-8.39-0.1c-3.46-0.2-6.83-1.15-8.22-4.64c-1.48-3.71-0.75-7.31,2.11-10.33
		C480.29,556.05,489.48,554.12,503.39,554.07z"/>
	<path class="st2" d="M1338.59,943.73c-15.11-0.64-25.46-9.06-33.36-21c-8-12.1-11.45-25.92-13.85-40.03
		c-1.05-6.16-1.98-12.34-3.32-18.43c-1-4.58-3.64-8.22-7.87-10.55c-3.6-1.98-7.07-2.04-9.56,1.48c-1.79,2.54-3.32,5.45-4.15,8.42
		c-1.43,5.08-4.46,8.12-9.52,9.01c-5.02,0.89-8.87-1.29-11.54-5.42c-4.37-6.74-4.47-14.06-2.29-21.51
		c5.5-18.77,26.33-28.66,45.73-21.44c18.82,7.01,28.41,21.38,31.48,40.73c2.07,13.02,4.72,25.91,10.5,37.91
		c0.85,1.77,1.95,3.49,3.25,4.95c4.34,4.87,6.64,4.73,9.88-1.08c2.26-4.03,3.93-8.41,5.65-12.72c2.96-7.42,8.85-11.33,16.75-10.91
		c9.02,0.48,16.61,9.6,14.34,18.37c-3.28,12.63-8.79,24.3-18.8,33.2C1355.32,940.58,1347.61,943.87,1338.59,943.73z"/>
	<path class="st2" d="M219.71,943.74c-15.29-0.5-25.76-8.96-33.74-21.03c-8-12.11-11.44-25.92-13.84-40.04
		c-1.05-6.16-1.98-12.34-3.32-18.43c-1.01-4.58-3.66-8.21-7.89-10.53c-3.61-1.98-7.08-1.99-9.55,1.52
		c-1.79,2.54-3.31,5.45-4.14,8.43c-1.43,5.08-4.48,8.1-9.54,8.98c-5.02,0.87-8.86-1.33-11.53-5.45c-4.29-6.61-4.43-13.82-2.39-21.13
		c5.24-18.79,26.07-28.91,45.5-21.89c17.22,6.23,27.09,18.85,31.03,36.56c2.71,12.17,5.43,24.37,8.96,36.31
		c1.37,4.63,4.8,8.71,7.61,12.82c1.47,2.16,3.91,2.23,5.28-0.1c2.87-4.87,5.75-9.8,7.91-15.01c3.29-7.93,8.9-12.05,17.11-11.6
		c9.01,0.49,16.59,9.64,14.3,18.4c-3.3,12.62-8.81,24.3-18.82,33.19C236.15,940.51,228.58,943.77,219.71,943.74z"/>
	<path class="st2" d="M1326,716.35c-13.69-0.92-26.29-4.37-37.34-12.2c-3.81-2.7-7.16-6.41-9.82-10.27
		c-3.54-5.14-2.92-12.85,0.79-17.21c4.12-4.84,9.72-5.52,15.34-3.81c4.27,1.3,8.31,3.5,12.24,5.69c8.78,4.89,17.95,6.54,27.67,3.77
		c12.11-3.45,21.33-16.69,19.47-29.08c-0.67-4.5-3.17-9.06-5.89-12.84c-7.52-10.47-18.74-16.33-29.76-22.29
		c-1.29-0.7-2.61-1.31-3.92-1.97c-8.17-4.13-11.41-12.21-8.33-20.77c2.82-7.84,11.08-12.65,19.49-9.12
		c24.79,10.42,47.01,24.41,57.48,50.99c11.7,29.7-6.01,64.95-37.59,75.09C1339.44,714.36,1332.62,715.04,1326,716.35z"/>
	<path class="st2" d="M207,716.34c-13.69-0.85-26.32-4.24-37.38-12.07c-4.01-2.84-7.48-6.81-10.26-10.9
		c-3.66-5.39-2.73-11.42,0.94-16.48c3.74-5.16,9.58-5.76,15.19-4.1c4.52,1.34,8.8,3.71,12.98,5.99c8.97,4.9,18.25,6.3,28.07,3.21
		c11.55-3.64,20.55-17,18.57-28.92c-0.75-4.5-3.26-9.03-5.99-12.81c-7.54-10.46-18.77-16.28-29.8-22.23
		c-1.17-0.63-2.38-1.19-3.57-1.79c-8.4-4.22-11.7-12.4-8.49-21.05c2.88-7.78,11.22-12.49,19.61-8.94
		c24.63,10.44,46.74,24.36,57.25,50.73c11.81,29.63-5.78,65.01-37.28,75.27C220.44,714.33,213.62,715.02,207,716.34z"/>
	<path class="st2" d="M986.97,1083.86c1.6-1.03,3.17-2.1,4.73-3.18c6.05-4.18,12.23-7.95,20.2-9.24c1.24,4.25,1.36,8.37,0.92,12.42
		h32.5c0.4-8.21-0.76-16.39-4.13-24.44c-6.01-14.34-18.01-21.19-33.21-18.75c-15.09,2.42-26.8,10.61-35.93,22.53
		c-3.61,4.71-5.55,10.31-5.29,16.4c0.07,1.59,0.41,3.02,0.96,4.26H986.97z"/>
	<path class="st2" d="M1000.56-1.86c-7.55,11.71-17.99,21.3-30.64,29.22c-4.05,2.54-8.41,4.61-12.38,7.27
		c-6.06,4.06-8.86,11.3-7.28,17.73c1.51,6.12,6.99,11.11,13.86,11.28c3.96,0.1,8.36-0.77,11.87-2.56
		c28.18-14.31,48.98-34.94,60.81-62.95H1000.56z"/>
	<path class="st2" d="M873.41,852.89c-0.14,1.36-0.19,1.76-0.22,2.16c-0.61,9.62-0.61,9.62,8,13.68c1.56,0.74,3.13,1.46,4.68,2.23
		c12.75,6.39,19.65,17.65,18.37,29.96c-1.44,13.85-10.68,24.58-24.51,28.25c-13.82,3.66-26-0.65-37.33-8.19
		c-22.97-15.3-33.52-44.49-25.19-69.18c2.56-7.57,6.62-14.29,12.17-19.93c7.36-7.48,16.33-10.58,26.59-6.99
		c9.82,3.44,15.02,10.97,16.71,21.04C873.11,848.53,873.24,851.2,873.41,852.89z"/>
	<path class="st2" d="M1014,176.68c-2.84,0.43-8.19,1.6-13.6,1.96c-4.42,0.29-9.13,0.42-13.31-0.78
		c-9.08-2.62-12.5-14.06-7.03-21.82c3.32-4.7,7.97-7.33,13.46-8.62c37.54-8.82,81.64,4.51,105.61,37.5
		c10.95,15.06,16.81,31.86,13.2,50.64c-2.59,13.47-9.17,24.67-22.4,30.62c-8.51,3.82-16.8,3.24-24.78-1.62
		c-8.33-5.07-8.47-15.32-0.22-20.42c1.91-1.18,3.92-2.28,6.01-3.1c9.56-3.74,11.77-10.17,9.64-20.41
		c-3.22-15.53-13.63-25.78-26.74-33.63C1042.4,180.13,1029.9,176.99,1014,176.68z"/>
	<path class="st2" d="M831.76,725.09c-1.11,21.67-9.33,43.64-32.89,57.28c-10.87,6.29-22.28,8.69-34.32,3.3
		c-6.02-2.69-9.18-8.86-7.11-15.1c0.93-2.8,3.11-5.67,5.53-7.38c3.07-2.17,6.83-3.64,10.5-4.62c14.68-3.89,22.87-13.67,25.29-28.19
		c3.32-19.9-3.93-36.25-18.26-49.79c-7.61-7.19-16.59-11.75-26.91-13.9c-7.19-1.5-11.95-9.12-11.37-17.13
		c0.54-7.45,6.21-13.54,13.93-13.97c4.01-0.22,8.23,0.47,12.13,1.57C804.63,647.44,831.76,683.39,831.76,725.09z"/>
	<path class="st2" d="M21.89,586.81c0.52-39.24,29.93-73.7,68.78-79.76c13.41-2.09,26.31-0.58,37.7,7.65
		c5.14,3.72,9.24,8.27,8.72,15.19c-0.84,11.33-8.15,16.05-19.5,13.35c-1.53-0.36-2.98-1.14-4.4-1.87
		c-7.97-4.11-16.12-4.06-24.35-1.03c-19.67,7.23-31.35,21.48-34,41.98c-1.67,12.93,1.8,25.32,10.19,35.93
		c5.08,6.42,5.08,12.41,0.46,19.04c-6.08,8.71-17.59,9.69-24.72,1.76c-8.75-9.73-13.85-21.39-16.43-34.1
		C23.11,598.98,22.67,592.86,21.89,586.81z"/>
	<path class="st2" d="M1141.34,586.48c0.31-39.02,30.31-73.89,68.85-79.49c13.3-1.93,26.05-0.48,37.32,7.64
		c5.14,3.7,9.29,8.22,8.81,15.14c-0.81,11.69-8.35,16.01-19.4,13.53c-0.39-0.09-0.77-0.24-1.11-0.43
		c-8.57-4.64-17.43-6.19-26.9-2.91c-10.77,3.74-19.56,10.07-26.17,19.38c-12.82,18.06-11.59,42.77,1.79,59.04
		c6.56,7.97,2.56,17.7-2.91,22.36c-6.37,5.42-15.76,4.87-21.54-1.63c-9.84-11.05-15.08-24.3-17.38-38.76
		C1141.97,595.78,1141.78,591.11,1141.34,586.48z"/>
	<path class="st2" d="M1149.88,749.11c5.52,1.33,11.33,1.96,16.51,4.11c21.73,9.02,40.85,21.68,54.68,41.28
		c5.36,7.59,9.75,15.58,10.82,24.98c1.28,11.26-2.68,20.43-11.76,27.15c-6.65,4.92-13.69,4.42-20.61,0.44
		c-6.57-3.78-11.03-9.54-14.35-16.21c-1.96-3.92-3.6-8-5.52-11.95c-4.63-9.53-12.44-14.09-22.88-14.67
		c-7.71-0.43-15.39-1.05-22.23-5.35c-10.61-6.68-15.91-18.47-12.97-29.31c3.12-11.55,13.42-19.31,26.14-19.69c0.67-0.02,1.33,0,2,0
		C1149.75,749.63,1149.81,749.37,1149.88,749.11z"/>
	<path class="st2" d="M31,749.14c5.39,1.32,11.05,1.97,16.12,4.07c21.74,9.02,40.85,21.68,54.69,41.28
		c5.36,7.59,9.75,15.58,10.83,24.98c1.29,11.26-2.66,20.43-11.74,27.16c-6.64,4.93-13.69,4.43-20.61,0.46
		c-6.58-3.77-11.03-9.53-14.36-16.2c-1.96-3.92-3.61-8-5.52-11.95c-4.62-9.54-12.42-14.1-22.87-14.69
		c-7.71-0.43-15.39-1.04-22.24-5.34c-10.62-6.68-15.92-18.46-13-29.3c3.11-11.55,13.41-19.32,26.13-19.71c0.8-0.02,1.6,0,2.4,0
		C30.88,749.64,30.94,749.39,31,749.14z"/>
	<path class="st2" d="M604.75,411.18c25.01,1.66,40.45,13.51,49.67,33.82c9.03,19.91,5.71,39.52-2.78,58.65
		c-2.41,5.43-5.53,10.64-8.91,15.54c-5.36,7.77-15.42,9.46-22.93,4.32c-7.11-4.86-8.73-14.88-3.57-22.72
		c6.62-10.07,11.51-20.67,11.02-33.1c-0.35-9-4.26-16.12-11.58-21.22c-5.24-3.66-11.31-4.37-16.49-0.69
		c-5.22,3.71-9.86,8.43-14.14,13.25c-5.29,5.95-9.66,12.71-14.96,18.65c-4.67,5.23-9.3,6.12-13.85,3.87
		c-4.74-2.34-7.9-8.05-6.61-14.2c4.9-23.38,16.65-41.94,39.16-51.96C594.36,412.91,600.73,412.2,604.75,411.18z"/>
	<path class="st2" d="M694.48,637.87c-2.25-0.3-6.38-0.61-10.39-1.45c-12.34-2.57-17.31-9.69-19.32-22.31
		c-1.11-6.98,5.02-14.92,12.12-16.09c14.3-2.34,24.13-10.24,30.38-23.13c2.08-4.29,4.45-8.53,7.28-12.35
		c8.48-11.46,19.97-15.9,33.98-13.34c9.99,1.83,18.38,11.19,19.32,21.82c2.21,24.89-9.48,42.65-29.62,55.57
		C725.55,634.73,711.19,637.35,694.48,637.87z"/>
	<path class="st2" d="M1214.58,689.41c-11.03-0.31-20.01-2.35-27.31-8.95c-7.09-6.4-7.25-15.76-0.62-21.73
		c4.07-3.67,8.93-3.73,13.92-2.93c3.67,0.59,7.32,1.8,10.98,1.83c2.54,0.02,5.77-0.87,7.38-2.59c0.95-1.02-0.07-4.77-1.21-6.7
		c-2.98-5.02-6.42-9.78-9.84-14.52c-8.01-11.08-13.01-23.15-12.45-37.09c0.89-22.26,24.64-39.34,44.82-32.25
		c8.84,3.11,14.16,10.05,13.52,17.66c-0.93,10.93-10.59,17.45-21.17,14.27c-3.83-1.15-5.59,0.03-4.97,4.06
		c0.48,3.07,1.52,6.27,3.13,8.91c3.38,5.56,7.27,10.81,11.01,16.15c4.72,6.72,8.5,13.88,9.73,22.07c2.95,19.63-9.3,36.87-28.9,40.79
		C1219.49,689.01,1216.29,689.2,1214.58,689.41z"/>
	<path class="st2" d="M92.42,689.33c-7.95-0.21-16.94-2.21-24.28-8.77c-7.25-6.49-7.42-16.07-0.56-21.99
		c4.13-3.56,8.99-3.56,13.98-2.71c3.67,0.62,7.33,1.81,10.98,1.79c2.52-0.01,5.6-1.07,7.31-2.79c0.87-0.88-0.18-4.55-1.3-6.38
		c-3.41-5.54-7.24-10.83-10.97-16.17c-7.51-10.77-12-22.48-11.39-35.82c1.06-22.99,26.27-39.96,46.51-31.32
		c8.21,3.5,12.79,10.56,11.67,18c-1.56,10.35-10.84,16.25-20.88,13.28c-4.02-1.19-5.83,0.07-5.11,4.26
		c0.53,3.07,1.61,6.25,3.25,8.88c3.71,5.98,7.92,11.66,11.91,17.47c5.29,7.71,8.91,16.08,9.26,25.54
		C133.57,673.09,116.11,689.55,92.42,689.33z"/>
	<path class="st2" d="M564.28,888.49c-8.6,0.43-17.12-1.77-25.26-5.1c-13.48-5.51-20.3-20.44-15.74-33.48
		c3.93-11.27,16.48-18.05,29.47-15.75c4.83,0.86,9.61,2.06,14.4,3.16c8.68,1.99,17.48-2,22.2-9.63c2-3.23,4.32-6.56,7.28-8.82
		c7.54-5.77,15.88-5.79,23.94-1.1c8.44,4.92,13.2,12.35,12.47,22.4c-0.8,11.18-7.09,19.57-14.83,26.98
		C604.13,880.62,584.22,888.46,564.28,888.49z"/>
	<path class="st2" d="M455.74,314.03c24.81,1.28,44.05,9.85,56.5,30.66c3.08,5.15,3.65,10.57,1.06,16.02
		c-2.73,5.75-7.44,9.23-13.83,9.32c-6.19,0.09-11.45-2.37-14.65-8.05c-5.01-8.92-12.81-13.63-22.73-15.03
		c-19.79-2.78-30.36,11.35-31.36,26.02c-0.44,6.48,1.47,13.12,2.35,19.68c0.33,2.5,1.05,4.98,1.09,7.48
		c0.13,9.37-7.9,15.45-16.45,11.73c-4.26-1.85-8.34-5.39-11.1-9.18c-8.82-12.1-9.81-25.99-6.56-40.09
		c5.3-23.04,18.05-39.81,41.75-46.33C446.77,314.9,452.02,314.61,455.74,314.03z"/>
	<path class="st2" d="M1152.52,841.79c-1.94,17.41-6.17,34.06-17.87,47.75c-12.24,14.33-28.15,18.43-45.87,13.9
		c-24.02-6.13-40.65-20.98-47.65-45.17c-1.4-4.84-0.91-10.64,0.17-15.69c1.34-6.29,6.06-10.49,12.64-11.09
		c6.47-0.58,10.73,3.43,13.46,8.86c1.41,2.81,1.92,6.06,3.09,9.01c4.56,11.51,13.07,18.85,24.65,22.76
		c6.98,2.36,13.46-0.25,17.33-6.74c4.66-7.81,6.6-16.45,7.87-25.32c0.99-6.93,2.89-13.34,10.37-16.17
		c10.51-3.97,20.98,2.68,21.78,13.88C1152.6,839.12,1152.52,840.46,1152.52,841.79z"/>
	<path class="st2" d="M1089.4,622.8c5.06,0,10.13-0.22,15.18,0.05c9.78,0.51,17.03,8.52,16.25,17.62
		c-0.79,9.13-8.81,15.39-18.45,14.71c-5.44-0.38-10.91-0.32-16.37-0.4c-31.47-0.47-55.38,13.58-73.6,38.47
		c-2.59,3.54-4.75,7.44-7.6,10.75c-2.46,2.87-5.25,5.89-8.54,7.53c-9.59,4.79-18.83-2.4-17.85-13.47c0.83-9.45,4.71-17.85,10.1-25.3
		c22.86-31.56,53.4-49.23,92.9-50.08c2.66-0.06,5.32-0.01,7.98-0.01C1089.4,622.72,1089.4,622.76,1089.4,622.8z"/>
	<path class="st2" d="M69.95,869.97c5.14-2.51,9.77-5.64,14.87-7.08c14.39-4.05,27.6,4.06,30.58,18.96
		c3.24,16.15-0.56,31.1-11.09,43.71c-11.48,13.74-30.8,14.45-44.89,2.24c-12.18-10.56-17.96-24.41-20.03-40.08
		c-1.27-9.61-0.94-19.19,1.69-28.47c1.08-3.81,3.33-7.62,5.99-10.57c5.48-6.08,15.05-4.27,18.72,3.77
		c2.15,4.72,2.65,10.19,3.86,15.33C69.87,868.66,69.9,869.58,69.95,869.97z"/>
	<path class="st2" d="M1189.2,869.99c5.03-2.48,9.54-5.52,14.5-7c14.28-4.26,27.8,3.71,30.87,18.51
		c3.41,16.43-0.43,31.65-11.31,44.39c-11.52,13.5-30.66,14.03-44.62,1.91c-12.18-10.57-17.95-24.41-20.01-40.09
		c-1.26-9.61-0.93-19.19,1.7-28.47c1.08-3.81,3.34-7.62,6.01-10.56c5.5-6.07,15.05-4.24,18.71,3.82c2.15,4.72,2.64,10.19,3.85,15.33
		C1189.12,868.69,1189.15,869.59,1189.2,869.99z"/>
	<path class="st2" d="M802.04,525.15c2.14,0.78,6.53,1.93,10.5,3.92c37.07,18.58,66.83,45.21,87.93,81.09
		c2.58,4.39,4.58,9.35,5.73,14.31c1.82,7.85-1.6,14.35-8.03,17.3c-5.86,2.69-13.28,0.67-17.98-5.67
		c-5.38-7.25-9.97-15.1-15.36-22.34c-17.79-23.87-39.68-42.87-66.81-55.58c-3.44-1.61-6.84-3.67-9.63-6.22
		c-4.97-4.53-6.05-11.21-3.5-17.22C787.4,528.81,793.08,525.13,802.04,525.15z"/>
	<path class="st2" d="M950.9,104.59c-0.02,18.87-3.63,34.47-12.99,48.42c-3.85,5.74-8.71,10.39-15.25,13.02
		c-4.18,1.68-8.11,1.19-11.67-1.53c-3.49-2.66-4.35-6.29-3.16-10.35c1.38-4.71,2.73-9.45,4.55-13.99c4.78-11.96,8.8-24.09,7.4-37.18
		c-1.43-13.34-5.29-25.79-15.38-35.44c-3.97-3.8-8.53-6.08-14.24-6.2c-8.88-0.17-15.12-6.28-15.41-14.59
		c-0.31-9.13,5.16-15.38,14.41-16.35c15-1.57,26.86,5.01,37.36,14.74C940.72,58.31,951.45,81.59,950.9,104.59z"/>
	<path class="st2" d="M1268.24,800.88c-32.4,0.04-57.06-25.01-55.04-56.75c1.24-19.51,10.42-34.98,27.19-45.37
		c3.48-2.15,7.82-3.52,11.9-3.95c7.17-0.75,13.09,3.51,15.59,10.03c2.39,6.22,0.64,13.13-4.65,17.7c-1.49,1.29-3.22,2.37-4.94,3.35
		c-10.4,5.92-15.34,17.59-11.54,28.92c3,8.95,10.59,12.72,19.2,14.07c3.93,0.61,8.14-0.49,12.22-0.88c1.98-0.19,3.94-0.67,5.92-0.76
		c7.69-0.35,12.38,2.42,14.64,8.49c2.48,6.66,0.47,13.93-5.16,18.27c-6.75,5.2-14.75,6.39-22.93,6.87
		C1269.84,800.93,1269.04,800.89,1268.24,800.88z"/>
	<path class="st2" d="M148.97,800.88c-32.38,0.04-57.05-25.05-55.02-56.77c1.25-19.5,10.43-34.98,27.21-45.36
		c3.48-2.15,7.82-3.52,11.9-3.94c7.16-0.74,13.09,3.53,15.58,10.05c2.38,6.22,0.61,13.13-4.68,17.7c-1.5,1.29-3.22,2.36-4.94,3.34
		c-10.39,5.92-15.33,17.61-11.51,28.93c3.01,8.94,10.6,12.72,19.22,14.05c3.94,0.61,8.14-0.5,12.22-0.88
		c1.98-0.19,3.94-0.67,5.92-0.76c7.7-0.34,12.36,2.42,14.62,8.51c2.47,6.67,0.46,13.92-5.19,18.26c-6.76,5.19-14.75,6.38-22.94,6.86
		C150.57,800.93,149.77,800.89,148.97,800.88z"/>
	<path class="st2" d="M491.12,210.81c20.6-0.02,35.07,7.28,48.79,16.59c2.75,1.87,5.49,3.78,8.05,5.89
		c7.29,6.03,8.6,15.81,3.18,22.8c-5.42,7-14.96,7.91-22.78,2.6c-6.37-4.32-12.77-8.75-19.67-12.08c-7.22-3.49-15.04-5.16-23.15-2.08
		c-5.31,2.02-8.4,5.88-8.79,11.26c-0.44,5.93,0.16,11.94,0.09,17.91c-0.04,3.57-0.06,7.24-0.86,10.69
		c-2.3,9.93-12.27,13.11-20.03,6.49c-1.79-1.53-3.35-3.46-4.58-5.47c-10.07-16.38-9.86-46.18,7.64-61.89
		C469.16,214.39,481.31,211.06,491.12,210.81z"/>
	<path class="st2" d="M794.89,1060.62c-4.07-0.62-8.78-0.85-13.21-2.11c-6.59-1.87-11.67-5.84-13.3-12.97
		c-1.82-7.96,3.4-14.16,11.52-14.38c14.9-0.4,29.46-2.48,42.25-10.98c16.75-11.13,25.02-27.14,26.02-46.96
		c0.48-9.62,7.16-16.79,16.58-16.8c8.68-0.01,15.86,7.85,15.77,17.26c-0.42,40.98-30.56,77.32-70.77,85.17
		C805.08,1059.77,800.27,1060,794.89,1060.62z"/>
	<path class="st2" d="M1443.37,606.1c8.95,0.59,14.44,4.18,14.75,11.42c0.16,3.67-1.14,8.13-3.33,11.07
		c-22.59,30.29-19.42,61.42-3.39,92.95c2.82,5.55,4.51,10.76,1.69,16.65c-2.65,5.53-6.74,9.22-13.12,9.63
		c-6.71,0.43-12.04-2.28-15.49-7.94c-9.56-15.68-15.24-32.75-17.07-51c-2.08-20.77,0.81-40.87,9.43-59.97
		c3.79-8.4,9-15.78,17.54-19.99C1437.16,607.54,1440.36,607.01,1443.37,606.1z"/>
	<path class="st2" d="M287.45,677.85c0.31-17.86,3.19-33.99,10.24-49.2c3.88-8.36,9.14-15.63,17.65-19.93
		c4.72-2.39,9.68-2.74,14.73-1.27c7.39,2.15,10.78,8.06,8.37,15.38c-0.97,2.95-2.62,5.91-4.68,8.22
		c-9.07,10.17-12.23,22.58-13.48,35.55c-1.95,20.32,2.23,39.36,12.86,56.96c4.65,7.7,1.85,17.51-5.88,22.25
		c-7.15,4.38-17.29,1.85-21.96-5.82c-9.7-15.92-15.33-33.24-17.2-51.78C287.71,684.38,287.61,680.52,287.45,677.85z"/>
	<path class="st2" d="M293.47,449.31c6.07,0.76,13.24,0.14,17.38-6.07c2.87-4.29,4.05-9.96,5.07-15.19
		c2.28-11.68,6.17-22.46,15.9-29.95c13.57-10.46,28.54-12.27,44.4-5.83c8.23,3.34,11.66,11.21,8.99,19.99
		c-2.43,7.99-9.97,12.22-18.58,10.37c-1.68-0.36-3.33-0.93-4.99-1.39c-5.7-1.6-11.52,1.74-12.82,7.53
		c-1.4,6.22-2.25,12.59-3.97,18.71c-6.52,23.13-34.09,38.87-56.69,32.12c-4.37-1.3-8.51-4.28-12.02-7.33
		c-4.37-3.81-5.18-9.11-3.23-14.66c1.92-5.47,6.14-7.82,11.59-8.26C287.14,449.13,289.81,449.31,293.47,449.31z"/>
	<path class="st2" d="M1412.3,449.26c6.43,0.8,12.92-0.25,18-5.82c3.97-4.36,3.97-10.03,4.92-15.32
		c2.13-11.86,6.21-22.7,16.12-30.23c13.52-10.26,28.37-12,44.08-5.64c8.38,3.39,11.8,11.44,8.93,20.34
		c-2.51,7.75-9.98,11.85-18.41,10.05c-1.69-0.36-3.33-0.92-4.99-1.39c-5.71-1.62-11.56,1.7-12.86,7.46
		c-1.4,6.22-2.25,12.59-3.97,18.71c-6.5,23.14-34.03,38.9-56.65,32.18c-4.37-1.3-8.53-4.25-12.04-7.3
		c-4.37-3.8-5.21-9.09-3.28-14.65c1.96-5.67,6.39-7.92,11.95-8.36C1406.6,449.09,1409.14,449.26,1412.3,449.26z"/>
	<path class="st2" d="M1455.45,972.16c-30.49-0.01-53.3-20.18-57-47.14c-1.16-8.45-1.09-16.78,1.67-24.86
		c3.89-11.39,17.11-15.39,25.82-7.92c5.04,4.33,6.29,10.07,4.98,16.33c-1.08,5.18-1.25,10.13,0.39,15.3
		c5.24,16.64,23.58,20.98,37.23,10.93c3.43-2.52,6.55-5.49,10.11-7.78c6.32-4.07,11.64-3.91,16.64-0.02
		c4.62,3.59,6.99,10.5,4.37,16.6c-2.1,4.88-5.05,9.81-8.83,13.47C1480.13,967.41,1466.78,971.86,1455.45,972.16z"/>
	<path class="st2" d="M336.43,972.16c-30.79-0.02-53.62-20.37-57.25-47.35c-1.12-8.32-1.03-16.51,1.64-24.47
		c3.83-11.45,16.9-15.57,25.72-8.23c5.12,4.27,6.42,10,5.18,16.26c-1.03,5.17-1.31,10.1,0.28,15.31c5.2,16.93,23.86,21.2,37.45,11
		c3.3-2.48,6.34-5.32,9.78-7.56c6.45-4.2,11.92-4.04,16.97,0.01c4.57,3.67,6.8,10.54,4.15,16.66c-2.06,4.76-4.92,9.58-8.61,13.15
		C360.93,967.39,347.49,971.91,336.43,972.16z"/>
	<path class="st2" d="M1022.05,291.42c-1.82,3.96-3.12,8.07-5.4,11.54c-7.53,11.51-22.7,15.83-35.7,10.56
		c-12.85-5.21-20.15-18.46-17.8-32.32c3.44-20.3,20.14-33.17,41.57-30.85c19.44,2.1,34.92,11.5,45.1,28.58
		c3.91,6.55,5.51,13.75,4.5,21.46c-0.53,4.03-2.55,6.61-6.41,7.76c-3.94,1.17-7.18,0.16-10.15-2.76
		c-4.53-4.46-9.31-8.67-14.01-12.96C1023.18,291.93,1022.42,291.64,1022.05,291.42z"/>
	<path class="st2" d="M1028.67,546.86c1.77-28.35,23.92-52.72,52.61-57.41c21.08-3.44,40.07,1.36,56.97,14.54
		c5.8,4.52,8.1,10.12,6.33,17.16c-2.77,10.98-14.5,15.1-24.12,8.6c-2.53-1.71-4.87-3.74-7.5-5.26c-16.65-9.64-36.6-6-48.2,9.34
		c-3.94,5.22-6.5,11.49-9.53,17.37c-1.15,2.23-1.7,4.76-2.75,7.05c-2.52,5.48-6.09,7.88-11,7.6c-5.06-0.29-9.92-3.97-11.35-9.2
		C1029.27,553.5,1029.14,550.14,1028.67,546.86z"/>
	<path class="st2" d="M405.34,1083.86h79.48c1.39-2.14,2.47-4.59,3.18-7.36c3.44-13.5-5.22-27.1-20.04-29.79
		c-7.81-1.42-16.15-0.75-24.15,0.01c-5.68,0.54-10.31,0.15-15.34-3.13c-14.43-9.41-31.73-1.86-34.59,14.86
		C392.03,1069.3,396.78,1077.73,405.34,1083.86z"/>
	<path class="st2" d="M94.36,74.04c-0.95-21.43,13.87-32.89,29.21-33.66c13.07-0.66,23.34,5.1,30.44,15.75
		c7.98,11.95,10.66,25.44,8.61,39.65c-1.91,13.24-11.76,20.59-25.03,21.81c-10.79,0.99-19.31-1.84-26.69-9.3
		C101.46,98.77,94.37,88.11,94.36,74.04z"/>
	<path class="st2" d="M1213.6,74.02c-0.94-21.43,13.89-32.88,29.23-33.64c13.06-0.65,23.33,5.11,30.44,15.77
		c7.97,11.96,10.65,25.45,8.59,39.66c-1.92,13.24-11.76,20.57-25.05,21.79c-10.79,0.99-19.3-1.85-26.69-9.31
		C1220.69,98.75,1213.61,88.09,1213.6,74.02z"/>
	<path class="st2" d="M510.37,838.75c0,26.43-22.96,51.09-49.32,52.88c-20.23,1.38-36.29-6.54-48.52-22.4
		c-4.94-6.41-7.4-13.71-6.44-22.02c0.61-5.28,2.93-9.11,7.99-10.88c5.5-1.91,10.63-0.91,14.78,3.18c2.44,2.41,4.4,5.33,6.49,8.08
		c5.47,7.22,12.01,12.43,21.72,12c10.79-0.48,20.44-10.11,21.23-21.23c0.12-1.72,0.25-3.46,0.63-5.13
		c2.04-9.1,8.45-13.95,17.19-13.09c8.57,0.84,13.85,6.68,14.26,15.81C510.4,836.88,510.37,837.81,510.37,838.75z"/>
	<path class="st2" d="M694.77,464.69c-3.43-0.2-6.98,0.08-10.28-0.69c-11.42-2.68-15-14.97-7.01-23.56
		c5.47-5.87,12.63-7.72,20.25-7.9c30.02-0.74,55.03,19.93,60.56,49.6c2.4,12.87,1.44,25.45-2.5,37.79
		c-3.56,11.13-10.89,15.7-20.61,13.45c-7.94-1.84-13.17-9.78-11.72-17.79c1.25-6.89,3.38-13.76,3.57-20.69
		c0.39-14.92-8.4-26.63-21.54-29.81c-3.44-0.83-7.11-0.72-10.67-1.04C694.8,464.27,694.78,464.48,694.77,464.69z"/>
	<path class="st2" d="M1462.07,1066.33c1.04,6.35,2.79,12.18,5.17,17.53h39.62c-1.89-1.6-3.71-3.27-5.39-5.07
		c-6.31-6.75-8.6-15.37-7.37-24.81c0.97-7.49,5.25-12.75,10.36-17.88c6.45-6.48,6.52-15.43,0.81-21.53
		c-6.61-7.05-15.32-7.53-22.76-1.35c-14.13,11.74-20.8,26.91-20.77,45.14c0,1.86-0.03,3.73,0.02,5.59
		C1461.76,1064.75,1461.94,1065.54,1462.07,1066.33z"/>
	<path class="st2" d="M387.6,1083.86c-1.89-1.6-3.71-3.27-5.39-5.07c-6.31-6.74-8.6-15.37-7.37-24.81
		c0.97-7.49,5.25-12.76,10.36-17.88c6.45-6.48,6.53-15.43,0.81-21.53c-6.6-7.05-15.32-7.53-22.76-1.35
		c-14.13,11.74-20.81,26.91-20.96,49.34c0.46,7.58,2.24,14.7,5.2,21.3H387.6z"/>
	<path class="st2" d="M380.08-1.86c0.61,0.34,1.23,0.68,1.86,1.01c6.07,3.21,12.65,4.83,19.65,4.23c4.4-0.38,8.02-1.86,10.28-5.25
		H380.08z"/>
	<path class="st2" d="M1499.31-1.86c0.59,0.33,1.19,0.66,1.8,0.98c6.32,3.35,13.17,5,20.44,4.2c4.15-0.46,7.58-2.02,9.63-5.18
		H1499.31z"/>
	<path class="st2" d="M553.98,816.27c-31.94,0.01-58.39-17.21-68.15-41.28c-2.69-6.64-3.33-13.39-1.74-20.32
		c1.12-4.91,3.98-8.42,9.07-9.57c5.06-1.14,9.97,0.93,12.87,5.23c3.87,5.73,7.71,11.48,11.56,17.22
		c10.73,15.96,32.93,21.33,50.03,12.06c2.1-1.14,4.11-2.45,6.16-3.7c7.51-4.58,17.07-2.64,21.9,4.47
		c4.95,7.28,3.43,16.58-3.76,21.92C579.32,811.66,565.08,816.1,553.98,816.27z"/>
	<path class="st2" d="M1399.93,491.69c4,0.88,8.11,1.42,11.97,2.73c7.02,2.38,10.69,8.3,10.31,15.75
		c-0.35,6.89-4.94,12.83-11.58,14.58c-1.86,0.49-3.98,0.56-5.88,0.26c-9.07-1.46-15.25,3.5-15.77,12.7
		c-0.39,6.85,1.14,13.25,4.46,19.16c3.32,5.91,7.1,11.56,10.46,17.45c2.59,4.53,4.61,9.27,3.62,14.77
		c-1.56,8.69-8.05,13.04-16.26,10.05c-4.14-1.51-8.52-3.74-11.47-6.87c-15.05-15.98-24.08-34.65-22.83-57.18
		c1.15-20.75,16.11-38.29,35.72-42.22c2.33-0.47,4.75-0.54,7.12-0.79C1399.84,491.94,1399.89,491.81,1399.93,491.69z"/>
	<path class="st2" d="M237.48,543.89c-0.14-25.85,12.91-44.61,32.46-50.21c8.05-2.3,16.05-2.11,23.83,1.13
		c7.33,3.06,11.03,11.74,8.51,19.68c-2.32,7.29-9.92,11.79-17.56,10.38c-8.04-1.49-14.35,3.78-14.96,12.44
		c-0.5,6.98,1.04,13.53,4.43,19.56c3.32,5.91,7.1,11.56,10.46,17.45c2.59,4.53,4.61,9.27,3.62,14.77
		c-1.56,8.69-8.04,13.03-16.26,10.06c-4.03-1.45-8.23-3.61-11.19-6.6C246.51,578.13,238.73,560.6,237.48,543.89z"/>
	<path class="st2" d="M835.21,1083.86c-11.21-8.38-25.37-12.84-40.62-11.75c-9.45,0.68-18.3,3.45-24,11.75H835.21z"/>
	<path class="st2" d="M822.94-1.86c4.38,7.43,5.6,16.81,2.5,25.02c-2.92,7.74,0.32,16.49,7.49,20.22c7.67,4,17.26,1.98,21.31-5.52
		c2.57-4.76,4.1-10.39,4.82-15.8c1.11-8.35,0.54-16.41-1.39-23.92H822.94z"/>
	<path class="st2" d="M710.31,67.85c10.82,0.15,27.62,6.88,41.21,21.12c6.36,6.66,7.6,14.22,3.62,21.09
		c-5.27,9.11-18.03,10.68-25.23,2.81c-7.82-8.54-17.26-13.16-28.84-13c-12.19,0.16-21.32,6.33-29.18,15.09
		c-2.64,2.94-5.69,5.6-8.88,7.94c-4.17,3.06-8.87,3.62-13.51,0.96c-4.67-2.67-6.84-6.7-6.6-12.23c0.43-9.97,5.29-17.66,12.03-24.44
		C667.48,74.6,683.82,67.85,710.31,67.85z"/>
	<path class="st2" d="M831.11,949.15c-0.38,10.13-5.7,21.15-12.54,31.39c-14.83,22.19-35.3,36.23-61.8,40.72
		c-4.17,0.71-8.79,0.04-12.98-0.94c-6.75-1.58-10.35-6.2-10.95-12.61c-0.53-5.71,2.61-11.54,8.46-14.15
		c3.96-1.77,8.32-2.63,12.53-3.83c23.12-6.6,38.84-20.7,45.21-44.37c0.38-1.41,0.82-2.81,1.32-4.18c3.06-8.52,9.89-12.79,18.19-11.4
		C826.63,931.14,831.27,937.32,831.11,949.15z"/>
	<path class="st2" d="M507.93,893.17c1.72,0.31,4.98,0.51,7.96,1.52c30.81,10.39,54.01,29.75,68.33,59.12
		c2.28,4.67,3.29,10.08,4.19,15.27c1.13,6.53-2.28,12.27-8.12,15.02c-5.59,2.63-11.79,1.47-16.15-3.84
		c-3.26-3.97-6.1-8.41-8.49-12.97c-8.91-17.01-22.08-29.48-39.37-37.61c-3.94-1.86-8.27-2.87-12.29-4.6
		c-3.13-1.34-6.43-2.74-8.98-4.9c-5.27-4.49-6.75-11.22-4.43-16.98C493.05,897.06,499.1,893.25,507.93,893.17z"/>
	<path class="st2" d="M372.69,105.58c0.08-15.32,0.6-25.68,4.14-35.61c2.39-6.68,6.97-11.03,14.26-11.65
		c11.33-0.96,19.19,8.62,16.5,20.65c-2.56,11.44-3.37,22.85-2.02,34.47c1.31,11.2,4.7,21.79,9.2,32.06
		c1.65,3.77,3.76,7.38,5.07,11.26c1.12,3.34,2,6.98,1.92,10.46c-0.2,9.35-8.68,14.7-17.46,11.4c-6.86-2.58-11.32-7.81-14.87-13.89
		C377.88,144.96,372.71,123.49,372.69,105.58z"/>
	<path class="st2" d="M1511.63,58.26c10.72-0.05,17.8,9.24,15.18,20.82c-2.58,11.44-3.35,22.86-1.98,34.47
		c1.32,11.2,4.74,21.77,9.22,32.05c2.17,4.99,4.56,9.91,6.33,15.04c1.52,4.39,1.25,8.95-1.26,13.1c-3.28,5.43-9.33,7.28-15.68,4.86
		c-6.85-2.62-11.29-7.85-14.82-13.94c-13.69-23.57-18.45-49.11-16.1-76.04c0.56-6.43,1.94-12.89,3.79-19.09
		C1498.45,62.4,1504.67,58.29,1511.63,58.26z"/>
	<path class="st2" d="M895.8,487.09c-0.84,14.34-5.44,29.45-18.21,40.65c-4.23,3.71-9.86,6.24-15.27,8.1
		c-6.63,2.28-13.97-1.6-17.03-7.82c-2.9-5.88-1.3-13.16,3.88-17.74c4.86-4.3,9.97-8.23,12.47-14.7c3.39-8.74,2.59-17.18-1.8-24.99
		c-3.14-5.6-7.44-10.6-11.59-15.56c-4.42-5.28-5.6-11.82-2.61-18.22c2.87-6.16,8.33-9.77,15.04-8.97c3.29,0.39,7.08,1.47,9.49,3.57
		C884.19,443.67,895.84,463.77,895.8,487.09z"/>
	<path class="st2" d="M1004.04,194.61c14.59,1.29,27.64,5.5,37.92,16.13c5.17,5.35,8.31,11.7,8.32,19.3
		c0.01,8.22-8.08,13.84-15.54,10.44c-5.79-2.64-11.25-6.01-16.81-9.14c-16.66-9.37-34.29-4.3-43.45,12.53
		c-4.75,8.72-13.62,11.68-22.28,7.45c-7.44-3.64-10.42-12.81-6.62-21.39c5.13-11.56,13.53-20.28,24.41-26.62
		C980.58,197.11,992.02,194.24,1004.04,194.61z"/>
	<path class="st2" d="M949.98,917.98c-12.13,0.07-22.03-4-27.43-15.83c-3.58-7.84,2.01-16.91,10.64-17.19
		c2.5-0.08,5.09,0.19,7.5,0.81c7.79,2,15.09,0.5,21.97-3.1c12.87-6.74,22.54-16.77,29.39-29.54c4.65-8.67,13.63-11.75,22.29-7.6
		c7.47,3.58,11.05,12.99,6.76,21.23c-13.9,26.71-34.4,45.37-65,50.9C954.15,918.01,952.12,917.88,949.98,917.98z"/>
	<path class="st2" d="M813.16,180.16c-20.34,0.04-34.4-17.74-30.04-37.98c3.62-16.8,14.36-27.82,28.88-29.62
		c16.86-2.1,32.1,8.73,35.76,25.42C852.53,159.72,835.79,180.12,813.16,180.16z"/>
	<path class="st2" d="M1506.67,191.19c-0.69,7.53-4.11,10.71-11.41,10.05c-6.02-0.54-11.48-2.84-15.94-6.75
		c-23.75-20.82-40.24-45.89-44.43-77.87c-1.27-9.66,3.46-17.9,11.16-20.26c9.34-2.86,19.64,2.87,20.3,12.35
		c1.47,21.06,12.16,37.58,24.53,53.53c4.31,5.56,8.44,11.31,11.97,17.38C1504.85,183.06,1505.45,187.31,1506.67,191.19z"/>
	<path class="st2" d="M387.49,191.34c-0.78,7.38-4.08,10.47-11.24,9.92c-6.18-0.47-11.75-2.85-16.3-6.86
		c-23.59-20.77-40.04-45.71-44.26-77.54c-1.31-9.91,3.41-18.22,11.28-20.55c9.19-2.72,19.44,2.9,20.1,12.19
		c1.52,21.51,12.48,38.31,25.18,54.51c4.09,5.22,7.97,10.67,11.24,16.43C385.52,183,386.21,187.34,387.49,191.34z"/>
	<path class="st2" d="M217.72,500.12c-11.49,0.02-19.93-4.85-25.57-13.88c-6.79-10.86-8.12-22.73-3.66-34.83
		c7.68-20.8,35.41-26.56,51.06-10.44c10.27,10.57,13.11,23.41,7.69,37.22C241.97,491.62,231.8,499.13,217.72,500.12z"/>
	<path class="st2" d="M1369.4,465.43c-0.41,20.54-17.75,36.57-37.51,34.36c-5.76-0.64-10.6-3.24-14.92-7.01
		c-13.51-11.82-15.7-36.77-4.26-50.12c8.02-9.36,18.4-12.45,30.23-10.06c12.44,2.51,20.39,10.43,24.31,22.33
		C1368.37,458.31,1368.7,461.93,1369.4,465.43z"/>
	<path class="st2" d="M430.92,121.47c-0.85-23.46,3.63-43.87,13.17-63.19c3.33-6.76,9.53-10.12,16.57-9.2
		c11.71,1.54,17.15,12.12,12.39,23.65c-2.68,6.49-5.32,13.04-7.26,19.77c-4.28,14.85-3.55,29.93-1.42,45.08
		c0.62,4.39,0.39,9.06-0.36,13.44c-0.88,5.16-4.19,9.11-9.49,10.19c-5.28,1.07-9.99-0.7-13.48-5.03c-5.45-6.75-7.8-14.72-8.93-23.13
		C431.5,128.59,431.18,124.08,430.92,121.47z"/>
	<path class="st2" d="M1594.32,64.89c-0.67,2.54-0.93,5.29-2.07,7.6c-10.25,20.81-12.29,42.61-8.62,65.29
		c0.68,4.23,0.35,8.78-0.34,13.05c-0.84,5.19-4.08,9.17-9.33,10.34c-5.43,1.21-10.24-0.65-13.8-5.12
		c-5.31-6.66-7.63-14.51-8.8-22.77c-3.7-26.15,0.25-51.1,11.89-74.8c4.08-8.31,12.54-11.58,21.08-8.3
		C1590.59,52.58,1593.93,57.67,1594.32,64.89z"/>
	<path class="st2" d="M734.36,174.08c-0.32,11.34-2.3,22.19-9.2,31.64c-3.8,5.2-9.14,8.24-15.29,8.13
		c-10.14-0.19-13.3-8.16-12.05-18.46c0.44-3.63,2.2-7.09,3.22-10.66c4.3-14.97-1.91-28.75-15.97-35.53
		c-1.32-0.64-2.64-1.26-3.97-1.85c-9.64-4.33-13.32-11.85-10.22-20.86c2.67-7.76,11.56-12.01,20.8-9.37
		c15.95,4.55,27.36,14.91,35.4,29.12C731.95,154.81,734.52,164.11,734.36,174.08z"/>
	<path class="st2" d="M1085.88,414.43c-7.65,0-14.14-2.78-20.51-5.85c-24.21-11.69-40.5-30.2-47.89-56.22
		c-2.46-8.67,0.92-16.47,8.51-20.2c6.69-3.28,15-1.27,19.59,5.04c1.36,1.88,2.25,4.21,2.93,6.46c5.75,19.05,18.24,31.75,36.5,39.1
		c3.56,1.44,7.2,2.82,10.51,4.74c6.41,3.73,9.49,10.25,8.03,15.98c-1.46,5.71-7.43,10.18-14.45,10.79
		C1087.91,414.37,1086.71,414.39,1085.88,414.43z"/>
	<path class="st2" d="M1138.46-1.86h-79.02c-2.55,4.66-3.59,9.9-2.45,15.89c1.39,7.28,8.99,10.7,15.31,6.9
		c2.96-1.78,5.71-3.93,8.72-5.59c8.74-4.81,17.84-6.11,26.32-0.01c6.97,5.01,13.44,10.78,19.73,16.65
		c6.75,6.3,16.76,6.99,23.03,0.99c6.45-6.17,6.81-16.82,0.45-23.35C1146.67,5.65,1142.66,1.78,1138.46-1.86z"/>
	<path class="st2" d="M803.29,508.77c-10.25-0.18-20.39-6.12-26.06-18.36c-5.52-11.93-4.48-23.56,4.11-33.94
		c1.46-1.77,3.53-3.26,5.62-4.23c4.92-2.28,9.85-4.94,15.08-6.05c17.59-3.76,34.65,8.94,36.99,26.99
		C841.58,492.88,827.28,508.54,803.29,508.77z"/>
	<path class="st2" d="M1351.66,1002.09c-15.75-0.04-28.24-4.28-38.85-13.4c-5.82-5-10-11.08-9.48-19.32
		c0.46-7.35,5.46-11.77,12.55-10.09c5.21,1.24,10.24,3.54,15.07,5.94c11.11,5.5,22.23,7.47,33.39,0.63c3.45-2.12,6.24-5.3,9.38-7.95
		c2.42-2.04,4.73-4.29,7.4-5.95c5.12-3.17,10.4-3.06,15.28,0.64c5.27,4,8.39,9.38,6.56,15.95c-1.25,4.46-3.45,9.11-6.52,12.51
		C1384.09,994.76,1368.42,1001.73,1351.66,1002.09z"/>
	<path class="st2" d="M231.5,1002.1c-14.89-0.11-27.26-4.3-37.79-13.29c-5.72-4.89-9.92-10.78-9.64-18.85
		c0.27-7.81,5.28-12.39,12.78-10.65c5.08,1.18,9.99,3.46,14.7,5.81c11.22,5.63,22.46,7.6,33.73,0.62c3.33-2.07,6.05-5.13,9.07-7.7
		c2.42-2.05,4.69-4.35,7.36-6.01c5.24-3.25,10.63-3.19,15.62,0.68c5.23,4.06,8.27,9.48,6.35,16.02c-1.3,4.45-3.53,9.07-6.62,12.47
		C264.65,994.86,248.98,1001.81,231.5,1002.1z"/>
	<path class="st2" d="M455.58,502.94c1.31-18.19-4.65-33.88-16.26-47.74c-2.55-3.05-4.81-6.89-5.66-10.7
		c-1.6-7.15,1.96-13.36,8.23-16.58c5.9-3.03,13.75-2.17,18.72,3.34c5.58,6.18,10.99,12.77,15.11,19.96
		c10.72,18.69,14.35,39.02,11.52,60.4c-0.7,5.28-3.02,9.89-7.06,13.51c-8.07,7.23-21.08,3.43-23.38-7.14
		C455.73,513.12,455.94,507.97,455.58,502.94z"/>
	<path class="st2" d="M63.27,734.99c-25.32-0.07-45.68-18.92-47.97-43.53c-0.94-10.09,0.56-19.61,5.1-28.63
		c4.04-8.04,12.77-11.03,21.4-7.47c7.34,3.03,10.89,11.47,8.28,19.75c-0.88,2.78-2.21,5.49-2.59,8.33
		c-1.55,11.57,5.66,19.72,17.89,20.61c4.23,0.31,8.55,0.24,12.65,1.14c5.22,1.15,9.24,4.18,10.1,9.99
		c0.87,5.92-1.28,10.74-5.87,14.43C76.53,734.21,69.77,735.23,63.27,734.99z"/>
	<path class="st2" d="M1182.08,734.99c-24.95-0.05-45.24-18.86-47.55-43.78c-0.92-9.96,0.6-19.34,5.04-28.24
		c4.05-8.12,12.62-11.15,21.32-7.66c7.53,3.02,11.12,11.62,8.36,20.04c-0.82,2.52-2.05,4.96-2.47,7.55
		c-1.91,11.62,5.36,20.21,17.68,21.15c4.1,0.31,8.28,0.19,12.27,1.02c5.36,1.11,9.66,3.98,10.6,9.98
		c0.98,6.25-1.41,11.21-6.34,14.98C1196.25,733.64,1190.88,735,1182.08,734.99z"/>
	<path class="st2" d="M115.57,1083.86c2.06-6.01,0.13-12.01-5.04-15.54c-6.63-4.52-14.33-3.46-19.7,2.42
		c-2.03,2.23-4.35,4.37-6.93,5.9c-12.85,7.6-31.91,6.4-43.65-2.9c-4.13-3.27-7.7-7.27-11.33-11.13c-3.65-3.89-7.32-4.45-11.6-1.24
		c-3.72,2.79-5.74,6.6-5.92,11.25c-0.16,4.07,0.47,7.81,1.77,11.24H115.57z"/>
	<path class="st2" d="M1234.87,1083.86c1.94-5.77,0.19-11.63-4.63-15.19c-6.68-4.93-14.68-3.96-20.3,2.24
		c-1.94,2.14-4.14,4.24-6.63,5.64c-12.14,6.82-24.67,6.42-37.21,1.19c-7.45-3.11-12.82-8.85-17.86-14.95
		c-3.28-3.97-6.75-4.59-10.86-1.97c-4.2,2.69-6.47,6.66-6.72,11.62c-0.21,4.14,0.42,7.94,1.74,11.42H1234.87z"/>
	<path class="st2" d="M871.51,733.04c25.81,0.75,47.55,10.56,64.26,30.34c3.73,4.41,6.1,10.21,8.15,15.72
		c1.87,5.04-0.32,9.69-4.25,13.27c-4.13,3.76-9.24,4.97-14.04,2.46c-4.48-2.34-8.8-5.57-12.16-9.33
		c-9.62-10.75-21.2-17.7-35.44-19.88c-4.17-0.64-8.53-0.76-12.74-0.37c-10.63,0.98-16.74-8.25-17.3-16.05
		c-0.57-7.85,6.25-15.17,15.14-16.13C865.89,732.79,868.72,733.04,871.51,733.04z"/>
	<path class="st2" d="M263.39,1007.91c17.79-0.92,31.89,11.78,32.91,29.64c1.03,18.19-11.77,32.93-29.5,33.95
		c-17.16,0.99-29.74-9.65-31.4-26.93c-0.41-4.31-0.33-8.84,0.53-13.06C239.07,1015.97,247.75,1008.72,263.39,1007.91z"/>
	<path class="st2" d="M1415.7,1038.76c-0.26,14.88-6.67,24.69-18.75,30.01c-11.31,4.98-22.69,4.29-32.54-4.11
		c-14.77-12.58-13.1-41.88,2.85-52.9c16.29-11.25,42.44-0.61,47.31,19.31C1415.28,1034.02,1415.47,1037.1,1415.7,1038.76z"/>
	<path class="st2" d="M1107.63,806.91c-0.4,3.75-0.83,9.85-1.74,15.89c-1.13,7.52-8.47,12.82-16.66,12.42
		c-7.81-0.39-13.87-5.89-14.44-13.81c-0.31-4.19,0.46-8.46,0.68-12.7c0.76-15.26-3.73-29.02-11.51-42.01
		c-2.67-4.47-5.21-9.46-6.04-14.5c-1.74-10.61,6.41-17.26,16.8-14.58c6.13,1.58,10.55,5.54,14.21,10.39
		C1101.53,764.73,1107.27,783.75,1107.63,806.91z"/>
	<path class="st2" d="M543.54,64.65c-0.43,7.04-1.94,11.55-6.13,14.88c-14.94,11.88-22.25,27.64-23.95,46.43
		c-0.39,4.29-1.58,8.66-3.24,12.64c-1.78,4.28-5.01,7.61-10.18,7.79c-5.54,0.19-9.74-2.26-12.51-7.05
		c-4.46-7.7-5.47-16.07-4.29-24.69c3.32-24.24,14.14-44.33,33.57-59.5c6.62-5.17,17.1-5.97,22.85,1.65
		C541.73,59.52,542.77,63.02,543.54,64.65z"/>
	<path class="st2" d="M514.03,3.49c-4.3-2.13-8.69-3.92-13.17-5.34h-52.88c-2.24,0.76-4.4,1.62-6.48,2.61
		c-6.68,3.2-12.72,7.27-16.49,13.94c-5.13,9.06-0.21,17.77,10.3,17.82c3.8,0.02,7.63-0.88,11.39-1.66
		c6.36-1.32,12.61-3.43,19.02-4.24c11.98-1.51,23.51,0.48,34.49,5.77c8.54,4.11,18.02,1.09,21.67-6.47
		C526.13,17.13,522.94,7.9,514.03,3.49z"/>
	<path class="st2" d="M1440.67,501.72c-0.02-16.7,14.73-31.65,31.22-31.65c16.41,0,29.86,14.5,29.81,32.13
		c-0.05,16.34-13.01,29.18-29.54,29.26C1454.52,531.55,1440.69,518.5,1440.67,501.72z"/>
	<path class="st2" d="M321.43,501.55c0.11-16.75,14.88-31.56,31.4-31.47c16.37,0.08,29.77,14.69,29.63,32.3
		c-0.12,16.32-13.25,29.17-29.72,29.08C335,531.37,321.32,518.3,321.43,501.55z"/>
	<path class="st2" d="M936.57,449.51c0.06,12.3-3.66,18.61-11.01,20.86c-8.88,2.72-18.18-2.67-19.47-11.84
		c-1.86-13.3-4.85-26.16-12.52-37.43c-2.91-4.27-6.31-8.2-9.6-12.2c-6.51-7.92-6.48-17.3,0.18-23.68
		c5.99-5.74,16.08-5.41,23.11,1.34c9.92,9.53,16.92,21.1,22.1,33.8C933.46,430.4,935.91,440.83,936.57,449.51z"/>
	<path class="st2" d="M145.6,561.41c0.16-7.13,2.54-13.57,6.39-19.46c14.46-22.13,44.82-29.67,68.26-17.01
		c6.33,3.42,9.03,11.33,6.55,19.14c-2.26,7.11-8.85,11.4-16.4,10.43c-2.35-0.3-4.66-1.05-6.91-1.84
		c-11.27-3.96-20.43-0.59-26.66,9.56c-2.91,4.74-5.89,9.56-9.57,13.68c-5.4,6.04-13.21,5.41-17.57-1.45
		c-2.4-3.77-3.45-8.39-5.11-12.63C144.91,561.69,145.25,561.55,145.6,561.41z"/>
	<path class="st2" d="M1263.88,561.93c1.07-7.5,3.32-14.03,7.29-19.83c16.45-24.05,44.58-28.9,68.52-16.99
		c6.25,3.11,8.76,11.17,6.38,18.85c-2.22,7.15-8.75,11.5-16.29,10.58c-2.48-0.3-4.92-1.11-7.3-1.93
		c-11.07-3.83-20.22-0.45-26.35,9.51c-2.92,4.74-5.86,9.57-9.54,13.7c-5.52,6.2-13.41,5.52-17.84-1.55
		C1266.45,570.58,1265.47,566.07,1263.88,561.93z"/>
	<path class="st2" d="M1123.05,574.67c-0.44,9.52-5.96,19.11-16.69,25.19c-9.46,5.36-19.34,5.45-28.81-0.3
		c-12.69-7.71-16.59-23.15-9.38-36.1c1.8-3.23,3.02-6.85,5.17-9.82c7.25-10.05,18.4-13.34,30.4-9.36
		C1115.14,548.05,1122.94,559.19,1123.05,574.67z"/>
	<path class="st2" d="M749.86,824.53c-24.25-2.42-43.05-13.42-54.88-35.15c-3.98-7.31-4.67-15.12-2.44-23.2
		c1.28-4.63,4.03-7.81,8.68-8.99c4.65-1.18,8.83,0.04,11.85,3.81c3.06,3.82,6.02,7.77,8.56,11.94c5.62,9.22,12.87,16.26,23.69,18.75
		c2.69,0.62,5.53,0.6,8.29,0.94c9.12,1.11,15.59,8.7,14.97,17.53c-0.57,8.08-7.84,14.33-16.73,14.37
		C751.19,824.53,750.53,824.53,749.86,824.53z"/>
	<path class="st2" d="M1160.86,1034.67c0.49-16.82,13.09-27.6,31.75-27.17c16.11,0.38,27.98,12.59,27.68,28.49
		c-0.32,16.83-13.97,30.26-30.17,29.7C1173.99,1065.14,1160.39,1050.71,1160.86,1034.67z"/>
	<path class="st2" d="M41.61,1034.71c0.47-16.84,13.01-27.6,31.71-27.21c16.23,0.34,28.34,12.95,27.72,28.85
		c-0.66,16.85-14.03,29.87-30.12,29.34C54.8,1065.16,41.17,1050.75,41.61,1034.71z"/>
	<path class="st2" d="M202.37,675.24c-2.95-0.72-6.08-1.05-8.84-2.23c-21.21-9.04-37.63-23.32-47.63-44.39
		c-2.5-5.28-3.14-10.82,0.04-16.08c3.19-5.27,7.97-8.22,14.26-7.91c6.28,0.3,11.13,3.02,14.05,8.9
		c6.87,13.85,17.27,24.08,31.46,30.45c2.63,1.18,5.17,2.82,7.32,4.73c5.63,5.02,6.91,10.55,4.37,16.85
		C215.03,671.43,209.45,674.9,202.37,675.24z"/>
	<path class="st2" d="M1321.67,675.19c-2.58-0.59-5.29-0.85-7.71-1.83c-22.13-8.89-38.97-23.58-49.07-45.46
		c-2.34-5.08-2.71-10.37,0.28-15.33c3.18-5.28,7.95-8.24,14.24-7.95c6.28,0.29,11.14,2.98,14.07,8.87
		c6.88,13.85,17.26,24.09,31.45,30.46c2.63,1.18,5.18,2.81,7.33,4.73c5.64,5.02,6.94,10.54,4.41,16.84
		C1334.3,671.4,1328.73,674.89,1321.67,675.19z"/>
	<path class="st2" d="M763.76,329c0.05,10.59-9.33,17.82-20.09,14.83c-18.69-5.18-33.72-16.05-46-30.91
		c-4.03-4.88-7.5-9.98-8.58-16.42c-1.06-6.36,0.68-11.34,5.33-14.4c5.07-3.33,11.92-3.27,16.81,0.58c2.7,2.12,5.21,4.6,7.35,7.29
		c8.59,10.82,19.32,18.56,32.26,23.35C760.02,316.72,763.73,321.3,763.76,329z"/>
	<path class="st2" d="M1419.27,1024.29c0.62-8.02,2.96-15.18,7.06-21.7c8.6-13.64,21.15-21.79,36.73-25.25
		c7.09-1.58,13.56,1.37,16.47,6.82c2.98,5.57,2.04,11.7-3.38,17.04c-3.08,3.04-6.92,5.33-10.48,7.87c-1.62,1.15-3.48,1.97-5.08,3.15
		c-5.23,3.86-8.92,8.32-8.49,15.59c0.46,7.83-4.2,13.51-11.6,15.63c-6.69,1.92-14.46-0.75-17.88-7.11
		C1420.71,1032.74,1420.34,1028.33,1419.27,1024.29z"/>
	<path class="st2" d="M300.02,1024.29c0.62-8.02,2.96-15.18,7.06-21.7c8.6-13.64,21.15-21.79,36.73-25.26
		c7.09-1.58,13.56,1.37,16.47,6.82c2.98,5.57,2.04,11.7-3.38,17.04c-3.08,3.04-6.92,5.33-10.48,7.87c-1.62,1.15-3.48,1.97-5.08,3.15
		c-5.23,3.86-8.93,8.32-8.5,15.59c0.46,7.84-4.2,13.51-11.59,15.63c-6.69,1.92-14.46-0.74-17.88-7.11
		C301.46,1032.75,301.09,1028.33,300.02,1024.29z"/>
	<path class="st2" d="M759.31,64.63c-3.54-1.02-7.29-1.6-10.58-3.15c-8.16-3.83-9.62-14.34-2.75-20.16
		c3.4-2.88,7.27-5.39,11.28-7.33c10.19-4.93,18-11.94,22.85-22.38c3.67-7.89,12.82-10.99,20.99-7.74c6.91,2.75,10.9,11.6,8.71,19.33
		c-5.11,18.1-28.59,38.38-47.15,40.7c-1.05,0.13-2.12,0.14-3.18,0.21C759.42,64.28,759.36,64.45,759.31,64.63z"/>
	<path class="st2" d="M593.26,917.89c0.68-4.29,1.48-11.17,2.92-17.91c1.6-7.52,9.56-12.65,17.27-11.68
		c8.16,1.03,13.97,7.27,13.83,15.38c-0.07,4.1-0.74,8.21-1.39,12.27c-1.22,7.56-0.2,14.09,7.3,18.11c0.81,0.43,1.5,1.1,2.2,1.72
		c8.62,7.6,6.31,19.8-4.57,23.58c-6.99,2.43-13.69,1.36-19.79-2.77C598.26,947.97,593.7,935.27,593.26,917.89z"/>
	<path class="st2" d="M1033.94,578.01c9.29-0.11,16.42,6.84,16.86,15.85c0.39,8.01-6.18,15.66-14.56,16.11
		c-10.37,0.56-19.26,4.48-27.52,10.42c-3.01,2.17-6.16,4.2-9.43,5.93c-5.03,2.66-10.98,1.92-14.84-1.78
		c-4.11-3.94-5.22-8.69-3.49-14.21c3.01-9.59,9.81-15.97,17.84-21.23C1009.63,582.03,1021.75,578.86,1033.94,578.01z"/>
	<path class="st2" d="M601.61,193.27c0.62-11.64,10.25-17.96,20.5-12.87c3.22,1.59,6.01,4.31,8.55,6.95
		c7.17,7.47,13.95,15.32,21.19,22.72c6.99,7.15,7.7,16.43,1.31,23.51c-5.59,6.2-15.65,6.66-22.69,0.56
		c-10.49-9.11-19.88-19.25-26.11-31.84C602.98,199.51,602.5,196.29,601.61,193.27z"/>
	<path class="st2" d="M1559.11,940.07c-0.32-4.87-0.74-8.31-0.72-11.76c0.05-8,6.81-14.79,14.99-15.31
		c7.83-0.49,15.3,5.44,16.49,13.18c2.2,14.23,1.23,28.09-5.31,41.16c-2.68,5.36-6.63,9.64-12.31,11.98
		c-8.36,3.44-16.98-1.72-16.91-10.75c0.05-6.56,1.59-13.12,2.49-19.67C1558.3,945.5,1558.81,942.1,1559.11,940.07z"/>
	<path class="st2" d="M435.49,965.57c1.01-5.47,2.3-10.91,2.95-16.42c0.63-5.36,1.16-10.84,0.74-16.19
		c-0.8-10.31,3.52-17.41,12.74-19.57c8.26-1.92,17.35,4.17,18.67,12.54c2.22,14.08,1.43,27.87-5.06,40.79
		c-1.8,3.57-4.61,6.87-7.61,9.56c-4.38,3.93-9.72,5.71-15.45,2.81C437.01,976.33,435.61,971.35,435.49,965.57z"/>
	<path class="st2" d="M1040.67,475.19c-0.04,10.34-6.19,18.74-16.29,22.25c-9.94,3.46-21.17,0.23-27.7-7.96
		c-6.29-7.88-7.34-19.13-1.7-27.19c4.57-6.54,17.63-14.32,28.58-10.92C1033.9,454.59,1040.72,463.89,1040.67,475.19z"/>
	<path class="st2" d="M923.21-1.86c4.15,4.14,8.39,8.21,12.81,12.05c5.05,4.4,11.06,4.85,17.18,1.96c5.46-2.58,8.11-6.93,8.99-14.01
		H923.21z"/>
	<path class="st2" d="M918.21,1029.21c-7.72-0.16-13.19-4.89-18.08-9.86c-3.98-4.04-8.71-7.87-9.58-14.29
		c-0.89-6.6,1.65-13.02,6.93-16.21c5.98-3.61,13.53-3.41,18.65,0.92c4.87,4.12,9.71,8.33,14.08,12.96c4.73,5,5.41,11.09,2.67,17.42
		C930.36,1026,924.73,1029.39,918.21,1029.21z"/>
</g>
</svg>
